<?xml version="1.0" encoding="utf-8"?>
<svg width="642.5" height="90" data-name="Layer 1" xmlns="http://www.w3.org/2000/svg" xmlns:bx="https://boxy-svg.com">
  <defs>
    <style bx:fonts="Poppins">@import url(https://fonts.googleapis.com/css2?family=Poppins%3Aital%2Cwght%400%2C100%3B0%2C200%3B0%2C300%3B0%2C400%3B0%2C500%3B0%2C600%3B0%2C700%3B0%2C800%3B0%2C900%3B1%2C100%3B1%2C200%3B1%2C300%3B1%2C400%3B1%2C500%3B1%2C600%3B1%2C700%3B1%2C800%3B1%2C900&amp;display=swap);</style>
  </defs>
  <g>
    <title>Layer 1</title>
    <path stroke="#000000" class="cls-1" d="m58.16805,15.73659l0,62.28a2.08,2.08 0 0 1 -2.08,2.08l-46.42,0a2.08,2.08 0 0 1 -2.08,-2.08l0,-62.28a2.08,2.08 0 0 1 2.08,-2.08l9,0l0,2.25a1,1 0 0 0 1,1l26.38,0a1,1 0 0 0 1,-1l0,-2.25l9,0a2.08,2.08 0 0 1 2.12,2.08z" fill="none" stroke-linejoin="round" stroke-width="2px" id="svg_1"/>
    <path stroke="#000000" class="cls-1" d="m54.00805,14.69659l0,60.2a1,1 0 0 1 -1,1l-40.22,0a1,1 0 0 1 -1,-1l0,-60.2a1,1 0 0 1 1,-1l5.88,0l0,2.25a1,1 0 0 0 1,1l26.38,0a1,1 0 0 0 1,-1l0,-2.29l5.88,0a1,1 0 0 1 1.08,1.04z" fill="none" stroke-linejoin="round" stroke-width="2px" id="svg_2"/>
    <rect stroke="#000000" class="cls-1" height="6.58" rx="1.04" width="28.43" x="18.66805" y="10.36659" fill="none" stroke-linejoin="round" stroke-width="2px" id="svg_3"/>
    <circle stroke="#000000" class="cls-1" cx="32.87805" cy="7.67659" r="2.69" fill="none" stroke-linejoin="round" stroke-width="2px" id="svg_4"/>
    <path stroke="#000000" class="cls-1" d="m43.87805,16.94659l0,5a1.56,1.56 0 0 1 -1.61,1.59l-18.78,0a1.56,1.56 0 0 1 -1.56,-1.56l0,-5" fill="none" stroke-linejoin="round" stroke-width="2px" id="svg_5"/>
    <path stroke="#ff6366" class="cls-2" d="m15.87805,45.38659l5.7,0l1.63,-7.37a0.26,0.26 0 0 1 0.51,0l3.21,13.74a0.26,0.26 0 0 0 0.51,0l3.27,-19.56a0.26,0.26 0 0 1 0.51,0l3.32,26.51a0.26,0.26 0 0 0 0.51,0l3.28,-22.27a0.26,0.26 0 0 1 0.51,0l3.24,15.61a0.26,0.26 0 0 0 0.51,0l3.29,-12.66a0.26,0.26 0 0 1 0.51,0l1.62,6l1.87,0" fill="none" stroke-linejoin="round" stroke-width="2px" stroke-linecap="round" id="svg_6"/>
    <text transform="matrix(2.87764, 0, 0, 2.66162, -208.263, -26.3526)" id="svg_8" style="font-family: Poppins; font-size: 24.4212px; font-weight: 900; stroke: rgb(0, 0, 0); stroke-width: 0px; text-transform: uppercase; white-space: pre;" x="99.6096" y="35.8571">House of Charts</text>
  </g>
</svg>