<?xml version="1.0" ?><!-- Uploaded to: SVG Repo, www.svgrepo.com, Generator: SVG Repo Mixer Tools -->
<svg width="804.201px" height="76.402px" viewBox="0 0 100 100" data-name="Layer 1" id="Layer_1" xmlns="http://www.w3.org/2000/svg">
<defs>
<style>.cls-1,.cls-2{fill:none;stroke-linejoin:round;stroke-width:2px;}.cls-2{stroke-linecap:round;}</style>
</defs>
<path stroke="#000000" class="cls-1" d="M75.29,23.2V85.48a2.08,2.08,0,0,1-2.08,2.08H26.79a2.08,2.08,0,0,1-2.08-2.08V23.2a2.08,2.08,0,0,1,2.08-2.08h9v2.25a1,1,0,0,0,1,1H63.17a1,1,0,0,0,1-1V21.12h9A2.08,2.08,0,0,1,75.29,23.2Z"/>
<path stroke="#000000" class="cls-1" d="M71.13,22.16v60.2a1,1,0,0,1-1,1H29.91a1,1,0,0,1-1-1V22.16a1,1,0,0,1,1-1h5.88v2.25a1,1,0,0,0,1,1H63.17a1,1,0,0,0,1-1V21.12h5.88A1,1,0,0,1,71.13,22.16Z"/>
<rect stroke="#000000" class="cls-1" height="6.58" rx="1.04" width="28.43" x="35.79" y="17.83"/>
<circle stroke="#000000" class="cls-1" cx="50" cy="15.14" r="2.69"/>
<path stroke="#000000" class="cls-1" d="M61,24.41v5A1.56,1.56,0,0,1,59.39,31H40.61a1.56,1.56,0,0,1-1.56-1.56v-5"/>
<path stroke="#ff6366" class="cls-2" d="M33,52.85H38.7l1.63-7.37a.26.26,0,0,1,.51,0l3.21,13.74a.26.26,0,0,0,.51,0l3.27-19.56a.26.26,0,0,1,.51,0l3.32,26.51a.26.26,0,0,0,.51,0L55.45,43.9a.26.26,0,0,1,.51,0L59.2,59.51a.26.26,0,0,0,.51,0L63,46.85a.26.26,0,0,1,.51,0l1.62,6H67"/>
<g id="svgGroup" stroke-linecap="round" fill-rule="evenodd" font-size="9pt" stroke="#000" stroke-width="0.25mm" fill="#000" style="stroke:#000;stroke-width:0.25mm;fill:#000"><path d="M 9.5 75.2 L 0 75.2 L 0 5.2 L 9.5 5.2 L 9.5 35.1 L 44 35.1 L 44 5.2 L 53.5 5.2 L 53.5 75.2 L 44 75.2 L 44 43.3 L 9.5 43.3 L 9.5 75.2 Z M 514.9 75.2 L 505.9 75.2 L 505.9 1.2 L 514.9 1.2 L 514.9 31.5 Q 517.7 27.4 522 24.7 A 17.572 17.572 0 0 1 529.125 22.191 A 22.595 22.595 0 0 1 532.1 22 A 23.225 23.225 0 0 1 537.165 22.518 Q 542.259 23.656 545.25 27.3 Q 549.375 32.326 549.588 40.409 A 33.764 33.764 0 0 1 549.6 41.3 L 549.6 75.2 L 540.6 75.2 L 540.6 42.3 Q 540.6 36.7 538 33.3 A 8.42 8.42 0 0 0 531.842 29.953 A 11.979 11.979 0 0 0 530.7 29.9 A 13.23 13.23 0 0 0 523.987 31.767 A 17.586 17.586 0 0 0 521.95 33.15 Q 517.8 36.4 514.9 40.8 L 514.9 75.2 Z M 129.8 57 L 129.8 23.2 L 138.8 23.2 L 138.8 55.8 A 22.981 22.981 0 0 0 139.054 59.334 Q 139.342 61.181 139.957 62.67 A 10.136 10.136 0 0 0 141.4 65.15 A 8.404 8.404 0 0 0 146.513 68.171 A 12.807 12.807 0 0 0 149 68.4 Q 153.1 68.4 156.95 66.75 Q 160.8 65.1 163.8 62.3 L 163.8 23.2 L 172.8 23.2 L 172.8 61.7 A 15.602 15.602 0 0 0 172.902 63.554 Q 173.234 66.317 174.65 67.35 Q 176.5 68.7 178.7 68.7 L 176.8 75.7 Q 167.5 75.7 165.3 68.3 Q 161.8 71.9 157.2 74.15 Q 152.6 76.4 147.3 76.4 Q 142.8 76.4 138.8 74.5 A 14.441 14.441 0 0 1 133.29 69.861 A 18.266 18.266 0 0 1 132.3 68.35 A 16.24 16.24 0 0 1 130.636 64.257 Q 129.8 61.105 129.8 57 Z M 492.4 7.6 L 489.5 15.6 Q 486.4 14.1 483.15 13.2 Q 480.357 12.427 476.715 12.318 A 40.705 40.705 0 0 0 475.5 12.3 A 21.173 21.173 0 0 0 467.595 13.755 A 19.981 19.981 0 0 0 464.05 15.6 A 21.167 21.167 0 0 0 457.684 22.181 A 26.978 26.978 0 0 0 456.1 25.1 Q 453.2 31.3 453.2 40.1 Q 453.2 48.5 456.05 54.8 A 25.677 25.677 0 0 0 459.636 60.628 A 21.423 21.423 0 0 0 463.95 64.6 A 19.703 19.703 0 0 0 475.095 68.097 A 23.894 23.894 0 0 0 475.5 68.1 A 33.715 33.715 0 0 0 479.471 67.879 Q 481.947 67.585 484 66.9 Q 487.6 65.7 491 63.8 L 493.9 71.7 A 37.561 37.561 0 0 1 489.405 73.744 A 47.894 47.894 0 0 1 485.45 75.05 A 33.592 33.592 0 0 1 480.485 76.041 Q 478.003 76.355 475.206 76.395 A 57.414 57.414 0 0 1 474.4 76.4 A 32.384 32.384 0 0 1 465.075 75.099 A 27.961 27.961 0 0 1 458.3 72.05 A 28.6 28.6 0 0 1 448.423 61.605 A 34.916 34.916 0 0 1 447.4 59.65 A 37.611 37.611 0 0 1 444.301 49.933 Q 443.525 45.667 443.501 40.814 A 62.816 62.816 0 0 1 443.5 40.5 Q 443.5 29.8 447.45 21.55 Q 451.4 13.3 458.65 8.65 A 29.371 29.371 0 0 1 471.33 4.239 A 37.292 37.292 0 0 1 475.6 4 A 45.639 45.639 0 0 1 480.658 4.268 A 35.2 35.2 0 0 1 484.7 4.95 A 38.224 38.224 0 0 1 492.175 7.495 A 35.605 35.605 0 0 1 492.4 7.6 Z M 186.2 71 L 190 63.5 A 18.557 18.557 0 0 0 193.144 65.626 Q 194.698 66.47 196.55 67.15 A 24.073 24.073 0 0 0 204.161 68.587 A 27.464 27.464 0 0 0 205 68.6 Q 210.392 68.6 213.235 66.885 A 7.738 7.738 0 0 0 213.45 66.75 Q 216.3 64.9 216.3 62 A 7.123 7.123 0 0 0 215.986 59.853 A 6.212 6.212 0 0 0 215.25 58.3 A 6.384 6.384 0 0 0 214.321 57.206 Q 213.307 56.234 211.634 55.281 A 22.3 22.3 0 0 0 211.4 55.15 A 28.462 28.462 0 0 0 209.406 54.157 Q 207.29 53.195 204.301 52.146 A 103.602 103.602 0 0 0 203.3 51.8 A 46.616 46.616 0 0 1 198.902 50.057 Q 196.788 49.083 195.112 47.995 A 19.335 19.335 0 0 1 192.35 45.85 A 11.324 11.324 0 0 1 189.056 39.854 A 16.794 16.794 0 0 1 188.7 36.3 Q 188.7 30.3 193.95 26.15 Q 198.354 22.669 205.608 22.108 A 37.527 37.527 0 0 1 208.5 22 A 40.794 40.794 0 0 1 212.946 22.231 Q 215.254 22.484 217.27 23.016 A 25.234 25.234 0 0 1 217.4 23.05 Q 221.3 24.1 224.4 25.7 L 221.9 33.1 Q 219.2 31.5 215.75 30.5 A 25.024 25.024 0 0 0 211.267 29.653 A 31.837 31.837 0 0 0 208.1 29.5 A 20.632 20.632 0 0 0 205.163 29.695 Q 202.077 30.14 200.2 31.6 A 9.322 9.322 0 0 0 198.842 32.874 Q 198.14 33.692 197.805 34.565 A 4.529 4.529 0 0 0 197.5 36.2 A 4.921 4.921 0 0 0 198.995 39.752 A 7.082 7.082 0 0 0 199.6 40.3 Q 201.665 41.972 207.598 43.934 A 84.459 84.459 0 0 0 207.8 44 A 67.753 67.753 0 0 1 212.862 45.898 Q 218.789 48.417 221.6 51.3 Q 225.5 55.3 225.5 61.3 Q 225.5 68.048 220.249 72.055 A 16.618 16.618 0 0 1 219.85 72.35 Q 215.11 75.748 207.662 76.295 A 40.423 40.423 0 0 1 204.7 76.4 Q 198.8 76.4 194.05 74.9 A 30.883 30.883 0 0 1 190.21 73.415 Q 188.229 72.484 186.648 71.336 A 18.229 18.229 0 0 1 186.2 71 Z M 704.9 71 L 708.7 63.5 A 18.557 18.557 0 0 0 711.844 65.626 Q 713.398 66.47 715.25 67.15 A 24.073 24.073 0 0 0 722.861 68.587 A 27.464 27.464 0 0 0 723.7 68.6 Q 729.092 68.6 731.935 66.885 A 7.738 7.738 0 0 0 732.15 66.75 Q 735 64.9 735 62 A 7.123 7.123 0 0 0 734.686 59.853 A 6.212 6.212 0 0 0 733.95 58.3 A 6.384 6.384 0 0 0 733.021 57.206 Q 732.007 56.234 730.334 55.281 A 22.3 22.3 0 0 0 730.1 55.15 A 28.462 28.462 0 0 0 728.106 54.157 Q 725.99 53.195 723.001 52.146 A 103.602 103.602 0 0 0 722 51.8 A 46.616 46.616 0 0 1 717.602 50.057 Q 715.488 49.083 713.812 47.995 A 19.335 19.335 0 0 1 711.05 45.85 A 11.324 11.324 0 0 1 707.756 39.854 A 16.794 16.794 0 0 1 707.4 36.3 Q 707.4 30.3 712.65 26.15 Q 717.054 22.669 724.308 22.108 A 37.527 37.527 0 0 1 727.2 22 A 40.794 40.794 0 0 1 731.646 22.231 Q 733.954 22.484 735.97 23.016 A 25.234 25.234 0 0 1 736.1 23.05 Q 740 24.1 743.1 25.7 L 740.6 33.1 Q 737.9 31.5 734.45 30.5 A 25.024 25.024 0 0 0 729.967 29.653 A 31.837 31.837 0 0 0 726.8 29.5 A 20.632 20.632 0 0 0 723.863 29.695 Q 720.777 30.14 718.9 31.6 A 9.322 9.322 0 0 0 717.542 32.874 Q 716.84 33.692 716.505 34.565 A 4.529 4.529 0 0 0 716.2 36.2 A 4.921 4.921 0 0 0 717.695 39.752 A 7.082 7.082 0 0 0 718.3 40.3 Q 720.365 41.972 726.298 43.934 A 84.459 84.459 0 0 0 726.5 44 A 67.753 67.753 0 0 1 731.562 45.898 Q 737.489 48.417 740.3 51.3 Q 744.2 55.3 744.2 61.3 Q 744.2 68.048 738.949 72.055 A 16.618 16.618 0 0 1 738.55 72.35 Q 733.81 75.748 726.362 76.295 A 40.423 40.423 0 0 1 723.4 76.4 Q 717.5 76.4 712.75 74.9 A 30.883 30.883 0 0 1 708.91 73.415 Q 706.929 72.484 705.348 71.336 A 18.229 18.229 0 0 1 704.9 71 Z M 391.7 75.2 L 382.7 75.2 L 382.7 32.9 L 374.7 32.9 L 374.7 25.1 L 382.7 25.1 L 382.7 19 A 25.495 25.495 0 0 1 383.326 13.182 Q 384.434 8.452 387.502 5.203 A 16.387 16.387 0 0 1 387.6 5.1 A 16.367 16.367 0 0 1 398.004 0.125 A 22.463 22.463 0 0 1 400.4 0 A 29.982 29.982 0 0 1 403.91 0.195 Q 405.655 0.401 407.171 0.825 A 17.884 17.884 0 0 1 407.6 0.95 Q 410.7 1.9 413.5 3.3 L 410.8 10.9 Q 408.7 9.8 406.3 8.9 A 14.172 14.172 0 0 0 402.678 8.079 A 17.356 17.356 0 0 0 401 8 A 10.802 10.802 0 0 0 397.971 8.405 A 8.291 8.291 0 0 0 394.25 10.65 A 8.462 8.462 0 0 0 392.303 14.019 Q 391.7 15.92 391.7 18.4 L 391.7 25.1 L 407.1 25.1 L 407.1 32.9 L 391.7 32.9 L 391.7 75.2 Z M 279.6 52.9 L 243.2 52.9 A 24.088 24.088 0 0 0 244.339 57.925 Q 245.675 61.738 248.3 64.3 Q 252.5 68.4 259.4 68.4 Q 263.9 68.4 267.5 67.45 Q 271.1 66.5 274.4 65 L 276.5 72.7 A 40.77 40.77 0 0 1 272.165 74.326 A 51.863 51.863 0 0 1 268.4 75.35 A 38.914 38.914 0 0 1 263.308 76.169 A 52.025 52.025 0 0 1 258.3 76.4 A 28.318 28.318 0 0 1 250.554 75.395 A 21.108 21.108 0 0 1 240.55 69.25 A 23.521 23.521 0 0 1 235.345 59.71 Q 234 55.045 234 49.2 A 35.359 35.359 0 0 1 234.833 41.378 A 28.84 28.84 0 0 1 236.95 35.25 A 24.642 24.642 0 0 1 241.966 28.168 A 22.887 22.887 0 0 1 245.2 25.55 A 21.048 21.048 0 0 1 255.459 22.078 A 26.205 26.205 0 0 1 257.5 22 Q 265 22 269.95 25.25 Q 274.9 28.5 277.4 34 A 28.185 28.185 0 0 1 279.826 43.864 A 33.434 33.434 0 0 1 279.9 46.1 A 75.204 75.204 0 0 1 279.609 52.797 A 69.426 69.426 0 0 1 279.6 52.9 Z M 670.7 57.3 L 670.7 32.9 L 661.7 32.9 L 661.7 25.1 L 670.9 25.1 L 672.8 8.7 L 679.7 8.7 L 679.7 25.1 L 694.1 25.1 L 694.1 32.9 L 679.7 32.9 L 679.7 58 A 21.559 21.559 0 0 0 679.868 60.796 Q 680.341 64.402 682.15 66.1 Q 684.6 68.4 688 68.4 Q 690.5 68.4 692.75 67.6 Q 695 66.8 696.9 65.7 L 699.4 72.9 A 18.546 18.546 0 0 1 697.782 73.756 Q 696.98 74.135 696.034 74.508 A 43.365 43.365 0 0 1 694 75.25 Q 690.6 76.4 686.9 76.4 Q 679.4 76.4 675.05 71.45 A 16.116 16.116 0 0 1 671.822 65.548 Q 671.059 63.117 670.815 60.181 A 34.777 34.777 0 0 1 670.7 57.3 Z M 600.7 27.4 L 600.7 23.2 L 608.9 23.2 L 608.9 62.6 A 12.15 12.15 0 0 0 609.002 64.236 Q 609.334 66.67 610.75 67.55 Q 612.6 68.7 614.8 68.7 L 612.9 75.7 A 17.722 17.722 0 0 1 608.635 75.228 Q 602.998 73.828 601.403 68.28 A 13.59 13.59 0 0 1 601.3 67.9 A 21.307 21.307 0 0 1 598.19 71.326 A 28.498 28.498 0 0 1 595.05 73.75 Q 591.1 76.4 585 76.4 Q 578.5 76.4 573.2 73.1 A 22.947 22.947 0 0 1 565.787 65.574 A 27.923 27.923 0 0 1 564.75 63.75 A 27.228 27.228 0 0 1 562.12 55.808 A 36.644 36.644 0 0 1 561.6 49.5 A 33.142 33.142 0 0 1 562.597 41.231 A 27.968 27.968 0 0 1 564.75 35.5 Q 567.9 29.3 573.45 25.65 A 22.297 22.297 0 0 1 584.645 22.044 A 27.388 27.388 0 0 1 586.2 22 A 22.584 22.584 0 0 1 590.994 22.491 A 18.703 18.703 0 0 1 594.35 23.55 A 26.002 26.002 0 0 1 598.637 25.844 A 22.103 22.103 0 0 1 600.7 27.4 Z M 635.8 75.2 L 626.8 75.2 L 626.8 23.2 L 635.5 23.2 L 635.5 34.5 Q 636.8 31.2 639 28.35 Q 641.2 25.5 644.5 23.75 A 14.817 14.817 0 0 1 649.18 22.226 A 19.459 19.459 0 0 1 652.2 22 Q 653.7 22 655.2 22.15 A 18.972 18.972 0 0 1 656.255 22.284 Q 656.755 22.362 657.182 22.463 A 8.817 8.817 0 0 1 657.7 22.6 L 655 31.9 A 9.763 9.763 0 0 0 652.855 31.288 Q 651.759 31.1 650.5 31.1 A 12.958 12.958 0 0 0 643.87 32.946 A 15.609 15.609 0 0 0 643.45 33.2 Q 640.122 35.286 637.978 39.642 A 22.927 22.927 0 0 0 637.95 39.7 Q 636.187 43.307 635.87 48.528 A 39.09 39.09 0 0 0 635.8 50.9 L 635.8 75.2 Z M 79.1 72.95 A 24.559 24.559 0 0 0 83.698 75.04 Q 87.753 76.4 92.4 76.4 Q 99.8 76.4 105.65 73 Q 111.5 69.6 114.9 63.45 A 26.255 26.255 0 0 0 117.553 56.309 A 34.184 34.184 0 0 0 118.3 49 A 34.542 34.542 0 0 0 117.815 43.092 A 25.795 25.795 0 0 0 114.85 34.65 Q 111.4 28.6 105.55 25.3 A 24.848 24.848 0 0 0 100.909 23.273 A 27.738 27.738 0 0 0 92.4 22 A 31.325 31.325 0 0 0 90.82 22.04 A 26.169 26.169 0 0 0 79.2 25.3 Q 73.3 28.6 69.9 34.7 A 26.023 26.023 0 0 0 67.151 42.29 A 35.006 35.006 0 0 0 66.5 49.2 A 34.82 34.82 0 0 0 66.765 53.554 A 27.451 27.451 0 0 0 69.85 63.35 Q 73.2 69.5 79.1 72.95 Z M 330.5 72.95 A 24.559 24.559 0 0 0 335.098 75.04 Q 339.153 76.4 343.8 76.4 Q 351.2 76.4 357.05 73 Q 362.9 69.6 366.3 63.45 A 26.255 26.255 0 0 0 368.953 56.309 A 34.184 34.184 0 0 0 369.7 49 A 34.542 34.542 0 0 0 369.215 43.092 A 25.795 25.795 0 0 0 366.25 34.65 Q 362.8 28.6 356.95 25.3 A 24.848 24.848 0 0 0 352.309 23.273 A 27.738 27.738 0 0 0 343.8 22 A 31.325 31.325 0 0 0 342.22 22.04 A 26.169 26.169 0 0 0 330.6 25.3 Q 324.7 28.6 321.3 34.7 A 26.023 26.023 0 0 0 318.551 42.29 A 35.006 35.006 0 0 0 317.9 49.2 A 34.82 34.82 0 0 0 318.165 53.554 A 27.451 27.451 0 0 0 321.25 63.35 Q 324.6 69.5 330.5 72.95 Z M 92.4 68.4 Q 100.3 68.4 104.7 63.05 A 18.802 18.802 0 0 0 108.519 54.96 A 27.105 27.105 0 0 0 109.1 49.2 Q 109.1 44 106.9 39.65 A 19.198 19.198 0 0 0 102.728 34.081 A 18.17 18.17 0 0 0 100.95 32.65 Q 97.2 30 92.4 30 A 19.249 19.249 0 0 0 87.174 30.672 A 14.037 14.037 0 0 0 80.1 35.2 A 17.878 17.878 0 0 0 76.426 42.574 Q 75.7 45.506 75.7 49 Q 75.7 54.2 77.9 58.65 A 19.437 19.437 0 0 0 81.43 63.69 A 17.627 17.627 0 0 0 83.85 65.75 Q 87.6 68.4 92.4 68.4 Z M 343.8 68.4 Q 351.7 68.4 356.1 63.05 A 18.802 18.802 0 0 0 359.919 54.96 A 27.105 27.105 0 0 0 360.5 49.2 Q 360.5 44 358.3 39.65 A 19.198 19.198 0 0 0 354.128 34.081 A 18.17 18.17 0 0 0 352.35 32.65 Q 348.6 30 343.8 30 A 19.249 19.249 0 0 0 338.574 30.672 A 14.037 14.037 0 0 0 331.5 35.2 A 17.878 17.878 0 0 0 327.826 42.574 Q 327.1 45.506 327.1 49 Q 327.1 54.2 329.3 58.65 A 19.437 19.437 0 0 0 332.83 63.69 A 17.627 17.627 0 0 0 335.25 65.75 Q 339 68.4 343.8 68.4 Z M 599.9 61.9 L 599.9 34 Q 597.2 32.1 593.95 30.95 Q 590.7 29.8 587.1 29.8 A 15.924 15.924 0 0 0 582.129 30.554 A 14.024 14.024 0 0 0 578.65 32.25 A 16.301 16.301 0 0 0 573.631 37.674 A 19.962 19.962 0 0 0 572.9 39.05 A 20.663 20.663 0 0 0 571.147 44.727 A 27.678 27.678 0 0 0 570.8 49.2 Q 570.8 54.8 572.9 59.15 A 17.602 17.602 0 0 0 576.006 63.696 A 15.697 15.697 0 0 0 578.7 65.95 Q 582.4 68.4 587 68.4 Q 590.8 68.4 594.2 66.55 Q 597.6 64.7 599.9 61.9 Z M 243.1 45.6 L 271.6 45.6 A 24.355 24.355 0 0 0 271.196 41.015 Q 270.7 38.431 269.596 36.407 A 12.422 12.422 0 0 0 267.8 33.9 A 12.488 12.488 0 0 0 260.839 30.124 A 18.395 18.395 0 0 0 257.3 29.8 A 13.58 13.58 0 0 0 252.188 30.735 A 12.524 12.524 0 0 0 247.7 33.85 Q 243.9 37.9 243.1 45.6 Z" vector-effect="non-scaling-stroke"/></g>
</svg>