<?xml version="1.0" encoding="utf-8"?>
<!-- Generator: Adobe Illustrator 23.0.1, SVG Export Plug-In . SVG Version: 6.00 Build 0)  -->
<svg version="1.1" id="Layer_1" xmlns="http://www.w3.org/2000/svg" xmlns:xlink="http://www.w3.org/1999/xlink" x="0px" y="0px"
	 viewBox="0 0 1054.24 120.88" style="enable-background:new 0 0 1054.24 120.88;" xml:space="preserve">
<style type="text/css">
	.st0{fill:#1246D3;}
</style>
<g>
	<path class="st0" d="M998.63,77.9c0,8.07,5.78,14.54,14.53,14.54c8.59,0,14.79-5.78,14.79-14.28c0-7.23-3.91-10.54-8.24-12.16
		c-4.59-1.7-9.35-1.61-9.35-5.35c0-1.7,1.19-3.4,3.4-3.4c1.7,0,3.06,1.1,3.74,2.81l5.78-5.69c-2.38-3.49-5.7-5.44-10.11-5.44
		c-6.46,0-11.73,4.93-11.73,11.73c0,6.89,4.59,10.2,8.84,11.39c4.17,1.19,8.33,1.53,8.33,6.29c0,3.4-2.21,5.27-5.44,5.27
		c-2.8,0-5.61-2.12-5.61-5.69H998.63z M958.18,70.67c0-7.31,4.84-12.75,12.24-12.75s12.33,5.44,12.33,12.75s-4.93,12.75-12.33,12.75
		S958.18,77.98,958.18,70.67 M949,49.42v64.77l9.35-1.02V87.5c2.64,2.89,7.22,4.93,12.49,4.93c12.66,0,21.08-8.5,21.08-21.76
		s-8.42-21.76-21.08-21.76c-5.61,0-9.78,2.29-12.49,4.93v-4.42H949z M938.1,49.42h-9.35v23.46c0,6.29-3.23,10.71-9.35,10.71
		s-9.26-3.23-9.26-10.71V49.42h-9.35v25.5c0,11.31,5.78,17.51,16.32,17.51c5.86,0,9.69-2.81,11.65-5.36v4.85h9.35V49.42z
		 M872.63,49.42h-8.58v8.84h8.58v33.66h9.35V58.26h12.75v-8.84h-12.75V31.4l-9.35,1.02V49.42z M837.93,91.92h9.35V68.46
		c0-6.29,4.16-10.54,10.11-10.54h0.85v-9.01c-5.95,0-8.92,2.21-10.96,4.93v-4.42h-9.35V91.92z M819.55,70.67
		c0,6.97-5.27,12.75-12.15,12.75c-7.06,0-12.5-5.78-12.5-12.75s5.44-12.75,12.5-12.75C814.28,57.92,819.55,63.7,819.55,70.67
		 M819.21,49.42v4.42c-1.79-2.29-6.55-4.93-12.16-4.93c-12.16,0-21.34,9.01-21.34,21.76s9.18,21.76,21.34,21.76
		c5.7,0,10.37-2.64,12.16-4.93v4.42h9.52v-42.5H819.21z M760,49.42h-8.58v8.84H760v33.66h9.35V58.26h12.75v-8.84h-12.75V31.4
		L760,32.42V49.42z M721.44,47.21c0-3.65,2.64-6.29,6.54-6.29c3.06,0,6.04,1.78,7.48,5.01l6.38-6.38
		c-2.89-4.93-7.65-7.65-14.11-7.65c-8.84,0-15.64,6.54-15.64,15.81c0,6.54,3.91,11.31,9.35,13.43c8.33,3.23,16.15,3.23,16.15,12.16
		c0,5.95-3.57,10.11-9.61,10.11c-6.03,0-9.6-4.59-9.6-10.11h-9.52c0,10.54,8.24,19.12,19.12,19.12c10.71,0,19.12-8.33,19.12-19.38
		c0-9.09-4.76-14.02-12.15-16.83C727.13,53.25,721.44,52.74,721.44,47.21 M656.33,57.58c5.36,0,9.94,3.57,11.3,7.99h-22.61
		C646.38,61.15,650.97,57.58,656.33,57.58 M677.66,73.9c0.17-1.02,0.26-2.12,0.26-3.23c0-12.07-9.52-21.76-21.59-21.76
		c-12.07,0-21.59,9.69-21.59,21.76s9.52,21.76,21.85,21.76c9.61,0,17.85-5.19,20.74-12.92h-11.14c-1.79,2.72-5.27,4.08-9.61,4.08
		c-6.12,0-10.97-4.33-11.99-9.69H677.66z M611.3,91.92h9.35V68.46c0-6.29,4.16-10.54,10.11-10.54h0.85v-9.01
		c-5.95,0-8.92,2.21-10.96,4.93v-4.42h-9.35V91.92z M591.22,70.67c0,6.97-5.27,12.75-12.16,12.75c-7.05,0-12.49-5.78-12.49-12.75
		s5.44-12.75,12.49-12.75C585.95,57.92,591.22,63.7,591.22,70.67 M590.88,49.42v4.42c-1.78-2.29-6.54-4.93-12.16-4.93
		c-12.15,0-21.33,9.01-21.33,21.76s9.18,21.76,21.33,21.76c5.7,0,10.37-2.64,12.16-4.93v4.42h9.52v-42.5H590.88z M518.1,70.67
		c0-7.65,4.93-12.92,12.24-12.92c3.74,0,6.55,1.53,8.67,3.83l6.89-6.21c-3.91-3.99-8.93-6.46-15.56-6.46
		c-12.49,0-21.76,9.26-21.76,21.76s9.26,21.76,21.76,21.76c12.33,0,21.68-9.35,21.68-21.76h-9.35c0,7.65-5.1,12.92-12.33,12.92
		C523.03,83.59,518.1,78.32,518.1,70.67 M463.09,91.92h9.35V68.46c0-6.21,3.83-10.71,9.86-10.71c6.46,0,9.26,4.08,9.26,10.71v23.46
		h9.35v-25.5c0-11.31-6.2-17.51-16.32-17.51c-5.52,0-9.6,2.29-12.15,5.35V31.4l-9.35,1.02V91.92z M434.59,49.42h-8.59v8.84h8.59
		v33.66h9.35V58.26h12.75v-8.84h-12.75V31.4l-9.35,1.02V49.42z M410.59,91.92h9.35V31.4l-9.35,1.02V91.92z M390.51,70.67
		c0,6.97-5.27,12.75-12.15,12.75c-7.05,0-12.49-5.78-12.49-12.75s5.44-12.75,12.49-12.75C385.24,57.92,390.51,63.7,390.51,70.67
		 M390.17,49.42v4.42c-1.79-2.29-6.55-4.93-12.15-4.93c-12.15,0-21.33,9.01-21.33,21.76s9.18,21.76,21.33,21.76
		c5.7,0,10.37-2.64,12.15-4.93v4.42h9.52v-42.5H390.17z M327.9,57.58c5.35,0,9.94,3.57,11.3,7.99H316.6
		C317.96,61.15,322.55,57.58,327.9,57.58 M349.24,73.9c0.17-1.02,0.26-2.12,0.26-3.23c0-12.07-9.52-21.76-21.59-21.76
		c-12.07,0-21.59,9.69-21.59,21.76s9.52,21.76,21.85,21.76c9.6,0,17.85-5.19,20.74-12.92h-11.14c-1.79,2.72-5.27,4.08-9.6,4.08
		c-6.12,0-10.97-4.33-11.99-9.69H349.24z M259.62,32.42v59.5h9.52v-25.5h20.14v25.5h9.52v-59.5h-9.52v24.99h-20.14V32.42H259.62z
		 M195.96,77.9c0,8.07,5.78,14.54,14.54,14.54c8.59,0,14.79-5.78,14.79-14.28c0-7.23-3.91-10.54-8.25-12.16
		c-4.59-1.7-9.35-1.61-9.35-5.35c0-1.7,1.19-3.4,3.4-3.4c1.7,0,3.06,1.1,3.74,2.81l5.78-5.69c-2.38-3.49-5.7-5.44-10.12-5.44
		c-6.46,0-11.73,4.93-11.73,11.73c0,6.89,4.59,10.2,8.84,11.39c4.17,1.19,8.33,1.53,8.33,6.29c0,3.4-2.21,5.27-5.44,5.27
		c-2.8,0-5.61-2.12-5.61-5.69H195.96z M159.76,77.9c0,8.07,5.78,14.54,14.53,14.54c8.59,0,14.79-5.78,14.79-14.28
		c0-7.23-3.91-10.54-8.24-12.16c-4.59-1.7-9.35-1.61-9.35-5.35c0-1.7,1.19-3.4,3.4-3.4c1.7,0,3.06,1.1,3.74,2.81l5.78-5.69
		c-2.38-3.49-5.69-5.44-10.12-5.44c-6.46,0-11.73,4.93-11.73,11.73c0,6.89,4.59,10.2,8.84,11.39c4.16,1.19,8.33,1.53,8.33,6.29
		c0,3.4-2.21,5.27-5.44,5.27c-2.8,0-5.61-2.12-5.61-5.69H159.76z M139.49,37.86c0,3.74,3.06,6.8,6.8,6.8c3.82,0,6.88-3.06,6.88-6.8
		c0-3.82-3.06-6.89-6.88-6.89C142.55,30.98,139.49,34.04,139.49,37.86 M141.7,91.92h9.26V52.31h-9.26V91.92z M113.44,91.92h6.2
		l15.38-39.61h-9.94l-8.58,25.07l-8.93-25.07h-9.09l-8.93,25.07l-8.58-25.07h-9.94l15.39,39.61h6.21l10.45-29.58L113.44,91.92z
		 M43.53,47.21c0-3.65,2.64-6.29,6.55-6.29c3.06,0,6.03,1.78,7.48,5.01l6.38-6.38c-2.89-4.93-7.65-7.65-14.11-7.65
		c-8.84,0-15.64,6.54-15.64,15.81c0,6.54,3.91,11.31,9.35,13.43c8.33,3.23,16.15,3.23,16.15,12.16c0,5.95-3.57,10.11-9.6,10.11
		s-9.6-4.59-9.6-10.11h-9.52c0,10.54,8.24,19.12,19.12,19.12c10.71,0,19.12-8.33,19.12-19.38c0-9.09-4.76-14.02-12.16-16.83
		C49.23,53.25,43.53,52.74,43.53,47.21"/>
</g>
</svg>
