<svg xmlns="http://www.w3.org/2000/svg" xml:space="preserve" width="6.42909in" height="1.24303in" version="1.1" style="shape-rendering:geometricPrecision; text-rendering:geometricPrecision; image-rendering:optimizeQuality; fill-rule:evenodd; clip-rule:evenodd" viewBox="0 0 6429 1243" xmlns:xlink="http://www.w3.org/1999/xlink">
 <defs>
  <style type="text/css">
   <![CDATA[
    .fil0 {fill:#000000;fill-opacity:0.15;stroke-width:0.264583;}
   ]]>
  </style>
 </defs>
 <g id="Layer_x0020_1">
  <metadata id="CorelCorpID_0Corel-Layer"/>
  <g id="_1642135538128">
   <polygon class="fil0" points="2450,1203 2048,638 1865,832 1865,1203 1716,1203 1716,44 1865,44 1865,640 2430,44 2613,44 2147,531 2645,1202 "/>
   <polygon class="fil0" points="2884,1203 2884,44 3033,44 3033,1203 "/>
   <path class="fil0" d="M3700 1234c-3,0 -6,0 -9,0 -138,0 -272,-50 -377,-139l91 -103c77,73 178,113 284,114 116,0 245,-44 245,-183 0,-149 -167,-194 -326,-261 -142,-59 -276,-136 -276,-317 0,-210 180,-333 377,-333 3,0 6,0 10,0 114,0 226,35 320,101l-82 111c-71,-54 -158,-85 -248,-87 -111,0 -223,60 -223,185 0,132 125,183 261,235 163,64 339,129 339,343 0,215 -185,334 -386,334z"/>
   <polygon class="fil0" points="4359,1203 4359,44 4508,44 4508,1203 "/>
   <path class="fil0" d="M6279 1203l0 -852c0,-112 -63,-205 -181,-205 -118,0 -299,136 -377,218l0 839 -149 0 0 -852c0,-112 -63,-205 -181,-205 -125,0 -286,129 -373,214l0 843 -149 0 0 -1159 145 0 9 157c113,-103 239,-183 398,-183 94,0 185,35 238,105 21,26 36,57 45,89 119,-114 256,-194 424,-194 94,0 192,38 248,116 44,62 53,141 53,216l0 854 -150 -1z"/>
   <g>
    <path class="fil0" d="M919 401l0 441 101 0c122,0 221,-99 221,-221 0,-121 -99,-220 -221,-220l-101 0zm-522 -177l0 0 0 172 -172 0c-124,0 -225,101 -225,226 0,124 101,225 225,225l172 0 0 172c0,124 100,224 224,224 123,0 224,-100 224,-224l0 -795c0,-124 -101,-224 -224,-224 -124,0 -224,100 -224,224l0 0zm0 0l0 0 0 0z"/>
   </g>
  </g>
 </g>
</svg>