<?xml version="1.0" encoding="UTF-8"?>
<svg role="img" width="187px" height="66px" viewBox="0 0 187 66" xmlns="http://www.w3.org/2000/svg">
  <title>Bluelion - A Foundation for Entrepreneurs</title>
  <path d="M0,33 L0,44 L11,33 L0,33 Z M29.3333,31.1667 L31.1667,31.1667 L31.1667,22 L42.1667,22 L42.1667,9.16667 L29.3333,22 L29.3333,31.1667 Z M29.3333,0 L18.3333,0 L23.8333,12.8333 L29.3333,0 Z M83.5047,32.9707 L83.138,32.78 L83.5047,32.5747 C84.3618,32.1318 85.0748,31.4535 85.5599,30.6196 C86.0451,29.7857 86.2823,28.8307 86.2437,27.8667 C86.2437,24.3027 83.5963,22 79.497,22 L69.6667,22 L69.6667,44 L79.53,44 C83.8017,44 86.5663,41.5947 86.5663,37.873 C86.5663,35.7097 85.5067,34.0157 83.5047,32.9707 Z M72.4277,24.5007 L79.3357,24.5007 C82.027,24.5007 83.446,25.7217 83.446,28.028 C83.446,30.4663 81.9793,31.812 79.3357,31.812 L72.4277,31.812 L72.4277,24.5007 Z M79.3687,41.4993 L72.4277,41.4993 L72.4277,34.166 L79.3687,34.166 C82.8997,34.166 83.6403,36.1203 83.6403,37.7593 C83.6403,40.1647 82.1333,41.4993 79.3687,41.4993 Z M24.75,49.5 L24.75,45.8333 L31.1667,38.5 L18.3333,38.5 L18.3333,22 L5.5,9.16667 L5.5,22 L16.5,22 L16.5,38.5 L22.9167,45.8333 L22.9167,49.5 L18.3333,53.1667 L7.33333,53.1667 L7.33333,55 L12.8333,55 L12.8993,66 L34.6977,66 L34.8333,55 L40.3333,55 L40.3333,53.1667 L29.3333,53.1667 L24.75,49.5 Z M33,64.1667 L14.6667,64.1667 L14.6667,55 L19.25,55 L23.8333,51.3333 L28.4167,55 L33,55 L33,64.1667 Z M47.6667,44 L47.6667,33 L36.6667,33 L47.6667,44 Z M161.003,28.0903 C156.336,28.0903 152.68,31.658 152.68,36.2047 C152.68,40.7513 156.347,44.319 161.003,44.319 C165.66,44.319 169.261,40.755 169.261,36.2047 C169.261,31.6543 165.634,28.0903 161.003,28.0903 Z M161.003,41.9467 C159.506,41.9088 158.083,41.2874 157.037,40.2151 C155.992,39.1427 155.406,37.7043 155.406,36.2065 C155.406,34.7088 155.992,33.2703 157.037,32.1979 C158.083,31.1256 159.506,30.5042 161.003,30.4663 C164.12,30.4663 166.562,32.9853 166.562,36.2047 C166.562,39.424 164.12,41.9467 161.003,41.9467 Z M145.717,25.08 L148.672,25.08 L148.672,22 L145.717,22 L145.717,25.08 Z M91.168,44 L93.7713,44 L93.7713,22 L91.168,22 L91.168,44 Z M145.878,44 L148.5,44 L148.5,28.413 L145.897,28.413 L145.878,44 Z M172.99,28.413 L172.99,44 L175.593,44 L175.593,30.8477 L184.393,30.8477 L184.393,44 L187,44 L187,28.413 L172.99,28.413 Z M137.287,44 L139.887,44 L139.887,22 L137.287,22 L137.287,44 Z M110.733,41.5617 L101.933,41.5617 L101.933,28.413 L99.33,28.413 L99.33,44 L113.34,44 L113.34,28.413 L110.733,28.413 L110.733,41.5617 Z M130.922,30.404 C129.518,28.8897 127.497,28.0903 125.088,28.0903 C120.454,28.0903 117.088,31.504 117.088,36.2047 C117.088,40.9053 120.465,44.319 125.121,44.319 C128.396,44.319 131.27,42.4637 132.378,39.6697 L129.683,39.6697 C128.751,41.1803 127.219,41.9467 125.121,41.9467 C123.856,41.9438 122.633,41.4964 121.664,40.6827 C120.696,39.869 120.044,38.7408 119.823,37.4953 L119.775,37.2313 L133.008,37.2313 C133.173,34.4007 132.455,32.043 130.926,30.404 L130.922,30.404 Z M119.812,35.0203 L119.856,34.7563 C120.03,33.514 120.652,32.3782 121.606,31.5635 C122.56,30.7487 123.779,30.3115 125.033,30.3343 C127.846,30.3343 129.91,32.12 130.167,34.771 L130.192,35.0203 L119.812,35.0203 Z"/>
</svg>
