<?xml version="1.0" encoding="UTF-8"?>
<svg width="165" height="100" viewBox="0 0 165 100" xmlns="http://www.w3.org/2000/svg">
  <style>
    .text { fill: #504E4A; }
    .wave { fill: url(#gradient); }
  </style>
  
  <defs>
    <linearGradient id="gradient" x1="0%" y1="50%" x2="100%" y2="50%">
      <stop offset="0%" stop-color="#D4E8F9" />
      <stop offset="100%" stop-color="#4683C5" />
    </linearGradient>
  </defs>
  
  <!-- Main logo text "PDAG" -->
  <g class="text" transform="translate(15, 30) scale(0.25)">
    <path d="M244 227h-17.3v56.7h6.05v-20.5h10.8c13.4 0 21.2-7.6 21.2-18.1 0.01-10.8-7.15-18.1-20.7-18.1zm-11.2 5.33h10.4c10.5 0 15.4 5.24 15.4 12.8 0 7.72-4.64 12.7-15.1 12.7h-10.7z"/>
    <path d="M286 227h-11.7v56.7h11.7c20.9 0 32.8-10.3 32.8-28.3 0.01-18.3-11.7-28.4-32.8-28.4zm-5.63 5.33h5.31c17.9 0 27 7.8 27 23.2 0 15-9.32 22.8-27 22.8h-5.31z"/>
    <path d="M375 283c-4.92-11.8-10-23.8-14.9-35.4-2.93-6.92-5.85-13.8-8.77-20.8l-0.06-0.15h-6.21l-23.7 56.7h6.5l6.2-15.2h28.2l6.22 15.1 0.06 0.15h6.66zm-14.8-20h-24.1l7.99-20c1.16-2.89 3.09-8.23 4.02-10.8 1.03 3.21 3.07 8.41 4.05 10.8z"/>
    <path d="M406 253v5.17h13.4v18.9c-2.92 1.02-6.38 1.54-10.3 1.54-14.2 0-23.7-9.51-23.7-23.7 0-13.8 9.93-23.4 24.1-23.4 5.11 0 9.68 1.04 14 3.19l0.32 0.16 0.62-5.85-0.17-0.07c-4.31-1.86-9.1-2.76-14.7-2.76-18.1 0-30.7 11.8-30.7 28.7 0 17.4 12.1 29.2 30.1 29.2 5.26 0 10.7-0.93 16.2-2.75l0.17-0.06v-28.2z"/>
  </g>
  
  <!-- Small text "Forschungsinstitut" -->
  <g class="text" transform="translate(7, 45) scale(0.12)">
    <path d="M227 367v-16.8h8.88v2.04h-6.46v5.33h6.19v2.02h-6.19v7.37h-2.42z"/>
    <path d="M247 365c-0.65 1.03-1.87 2.23-4.22 2.23-2.74 0-4.42-1.92-4.42-4.9v-7.63h2.28v6.05c0 2.54 0.26 4.58 2.78 4.58 2.16 0 3.5-1.99 3.5-4.32v-6.31h2.28v8.57c0 1.3 0 2.64 0.12 3.67h-2.18c-0.05-0.5-0.1-1.13-0.1-1.94zm-4.25-12.5h-2.21v-2.42h2.21zm4.56 0h-2.18v-2.42h2.18z"/>
    <path d="M255 357c0.7-1.39 1.87-2.35 3.43-2.35 0.48 0 0.86 0.05 1.18 0.17v2.14c-0.29-0.12-0.7-0.19-1.22-0.19-2.11 0-3.38 1.75-3.38 4.87v5.54h-2.28v-8.62c0-1.3-0.02-2.59-0.12-3.62h2.26c0.07 0.62 0.1 1.44 0.1 2.06z"/>
    <path d="M270 367h-2.45v-16.8h2.45z"/>
    <path d="M276 354c0 1.2-0.02 2.52-0.07 3.17h0.05c0.86-1.34 2.28-2.26 4.06-2.26 3.46 0 4.58 2.28 4.58 5.52v7.01h-2.28v-6.05c0-2.4-0.26-4.58-2.86-4.58-1.2 0-2.28 0.7-2.9 1.75-0.38 0.67-0.58 1.58-0.58 3.02v5.86h-2.28v-18.2h2.28z"/>
    <path d="M290 357c0.7-1.39 1.87-2.35 3.43-2.35 0.48 0 0.86 0.05 1.18 0.17v2.14c-0.29-0.12-0.7-0.19-1.22-0.19-2.11 0-3.38 1.75-3.38 4.87v5.54h-2.28v-8.62c0-1.3-0.02-2.59-0.12-3.62h2.26c0.07 0.62 0.1 1.44 0.1 2.06z"/>
    <path d="M298 362c0.1 2.47 1.78 3.94 4.25 3.94 1.42 0 2.47-0.34 3.58-0.91l0.07 2.09c-1.1 0.5-2.33 0.74-3.79 0.74-4.08 0-6.41-2.47-6.41-6.5 0-3.86 2.35-6.31 5.83-6.31 3.22 0 5.26 1.94 5.26 6.07 0 0.24-0.02 0.62-0.05 0.89h-8.74zm6.55-1.75c0-2.35-1.3-3.48-3.1-3.48s-3.22 1.3-3.41 3.48z"/>
    <path d="M315 359c0-1.3-0.02-2.59-0.12-3.62h2.18c0.05 0.5 0.1 1.34 0.1 1.97h0.05c0.96-1.54 2.35-2.26 4.2-2.26 3.14 0 5.26 2.5 5.26 6.24 0 3.89-2.14 6.58-5.3 6.58-1.9 0-3.36-1.01-4.1-2.35h-0.05c0.05 0.48 0.07 2.3 0.07 3.02v4.08h-2.28v-13.7zm2.26 2.52c0 2.45 1.58 4.49 3.6 4.49 2.11 0 3.43-2.02 3.43-4.49 0-2.71-1.34-4.54-3.43-4.54-2.02 0.01-3.6 2-3.6 4.54z"/>
    <path d="M329 365c0.94 0.53 1.97 0.79 2.98 0.79 1.32 0 2.3-0.62 2.3-1.68 0-0.96-0.65-1.42-2.54-2.33-2.04-0.98-2.81-1.85-2.81-3.41 0-2.21 1.78-3.55 4.27-3.55 1.06 0 2.09 0.19 2.83 0.5l-0.19 1.9c-0.89-0.43-1.73-0.6-2.62-0.6-1.13 0-2.02 0.55-2.02 1.56 0 0.98 0.7 1.42 2.26 2.09 2.28 0.98 3.1 2.04 3.1 3.65 0 2.45-1.85 3.72-4.42 3.72-1.25 0-2.28-0.19-3.31-0.6z"/>
    <path d="M342 362c0.26 0.77 0.67 2.14 0.89 2.98h0.05c0.24-0.84 0.67-2.26 0.91-2.98l2.5-7.42h2.3l-4.37 12.1c-1.51 4.15-2.59 5.45-5.09 5.45-0.38 0-0.91-0.05-1.39-0.19l0.14-1.8c0.34 0.1 0.7 0.17 1.08 0.17 1.32 0 1.87-0.7 2.66-2.98l-4.63-12.8h2.47z"/>
    <path d="M359 357c-0.72-0.36-1.44-0.5-2.28-0.5-2.45 0-4.13 1.7-4.13 4.25 0 2.59 1.66 4.39 4.08 4.39 0.89 0 1.61-0.14 2.54-0.6l0.19 2.04c-0.86 0.36-1.92 0.53-3 0.53-3.74 0-6.24-2.52-6.24-6.29 0-3.67 2.52-6.29 6.38-6.29 0.91 0 1.78 0.12 2.59 0.46z"/>
    <path d="M363 354c0 1.2-0.02 2.52-0.07 3.17h0.05c0.86-1.34 2.28-2.26 4.06-2.26 3.46 0 4.58 2.28 4.58 5.52v7.01h-2.28v-6.05c0-2.4-0.26-4.58-2.86-4.58-1.2 0-2.28 0.7-2.9 1.75-0.38 0.67-0.58 1.58-0.58 3.02v5.86h-2.28v-18.2h2.28z"/>
    <path d="M378 353h-2.54v-2.52h2.54zm-0.12 14.4h-2.3v-12.2h2.3z"/>
    <path d="M380 365c0.94 0.53 1.97 0.79 2.98 0.79 1.32 0 2.3-0.62 2.3-1.68 0-0.96-0.65-1.42-2.54-2.33-2.04-0.98-2.81-1.85-2.81-3.41 0-2.21 1.78-3.55 4.27-3.55 1.06 0 2.09 0.19 2.83 0.5l-0.19 1.9c-0.89-0.43-1.73-0.6-2.62-0.6-1.13 0-2.02 0.55-2.02 1.56 0 0.98 0.7 1.42 2.26 2.09 2.28 0.98 3.1 2.04 3.1 3.65 0 2.45-1.85 3.72-4.42 3.72-1.25 0-2.28-0.19-3.31-0.6z"/>
    <path d="M399 357c-0.72-0.36-1.44-0.5-2.28-0.5-2.45 0-4.13 1.7-4.13 4.25 0 2.59 1.66 4.39 4.08 4.39 0.89 0 1.61-0.14 2.54-0.6l0.19 2.04c-0.86 0.36-1.92 0.53-3 0.53-3.74 0-6.24-2.52-6.24-6.29 0-3.67 2.52-6.29 6.38-6.29 0.91 0 1.78 0.12 2.59 0.46z"/>
    <path d="M403 354c0 1.2-0.02 2.52-0.07 3.17h0.05c0.86-1.34 2.28-2.26 4.06-2.26 3.46 0 4.58 2.28 4.58 5.52v7.01h-2.28v-6.05c0-2.4-0.26-4.58-2.86-4.58-1.2 0-2.28 0.7-2.9 1.75-0.38 0.67-0.58 1.58-0.58 3.02v5.86h-2.28v-18.2h2.28z"/>
    <path d="M417 362c0.1 2.47 1.78 3.94 4.25 3.94 1.42 0 2.47-0.34 3.58-0.91l0.07 2.09c-1.1 0.5-2.33 0.74-3.79 0.74-4.08 0-6.41-2.47-6.41-6.5 0-3.86 2.35-6.31 5.83-6.31 3.22 0 5.26 1.94 5.26 6.07 0 0.24-0.02 0.62-0.05 0.89h-8.74zm6.55-1.75c0-2.35-1.3-3.48-3.1-3.48s-3.22 1.3-3.41 3.48z"/>
  </g>
  
  <!-- Small text "Gesundheitsökonomie" -->
  <g class="text" transform="translate(7, 60) scale(0.12)">
    <path d="M239 382c-1.25-0.72-2.88-1.15-4.32-1.15-4.01 0-6.77 2.54-6.77 6.46 0 3.96 2.69 6.48 6.53 6.48 0.82 0 1.61-0.05 2.5-0.24v-4.92h-3.58v-1.97h6v8.47c-1.85 0.53-3.31 0.77-4.94 0.77-5.54 0-9.12-3.43-9.12-8.67 0-5.02 3.86-8.42 9.26-8.42 1.58 0 3.05 0.17 4.63 0.84z"/>
    <path d="M245 390c0.1 2.47 1.78 3.94 4.25 3.94 1.42 0 2.47-0.34 3.58-0.91l0.07 2.09c-1.1 0.5-2.33 0.74-3.79 0.74-4.08 0-6.41-2.47-6.41-6.5 0-3.86 2.35-6.31 5.83-6.31 3.22 0 5.26 1.94 5.26 6.07 0 0.24-0.02 0.62-0.05 0.89h-8.74zm6.55-1.75c0-2.35-1.3-3.48-3.1-3.48s-3.22 1.3-3.41 3.48z"/>
    <path d="M256 394c0.94 0.53 1.97 0.79 2.98 0.79 1.32 0 2.3-0.62 2.3-1.68 0-0.96-0.65-1.42-2.54-2.33-2.04-0.98-2.81-1.85-2.81-3.41 0-2.21 1.78-3.55 4.27-3.55 1.06 0 2.09 0.19 2.83 0.5l-0.19 1.9c-0.89-0.43-1.73-0.6-2.62-0.6-1.13 0-2.02 0.55-2.02 1.56 0 0.98 0.7 1.42 2.26 2.09 2.28 0.98 3.1 2.04 3.1 3.65 0 2.45-1.85 3.72-4.42 3.72-1.25 0-2.28-0.19-3.31-0.6z"/>
    <path d="M274 394c-0.65 1.03-1.87 2.23-4.22 2.23-2.74 0-4.42-1.92-4.42-4.9v-7.63h2.28v6.05c0 2.54 0.26 4.58 2.78 4.58 2.16 0 3.5-1.99 3.5-4.32v-6.31h2.28v8.57c0 1.3 0 2.64 0.12 3.67h-2.18c-0.05-0.5-0.1-1.13-0.1-1.94z"/>
    <path d="M282 386c0.91-1.39 2.3-2.26 4.08-2.26 3.46 0 4.56 2.28 4.56 5.52v7.01h-2.28v-6.05c0-2.4-0.24-4.58-2.83-4.58-1.2 0-2.3 0.7-2.93 1.75-0.38 0.67-0.58 1.58-0.58 3.02v5.86h-2.28v-8.62c0-1.3-0.02-2.59-0.12-3.62h2.23c0.05 0.53 0.1 1.32 0.1 1.97z"/>
    <path d="M305 392c0 1.3 0.02 2.66 0.12 3.7h-2.09c-0.05-0.65-0.07-1.32-0.07-2.11h-0.05c-0.94 1.54-2.26 2.4-4.15 2.4-3.29 0-5.38-2.52-5.38-6.34s2.18-6.48 5.4-6.48c1.8 0 3.24 0.82 3.98 2.14h0.05c-0.05-0.77-0.07-1.85-0.07-3.05v-4.7h2.26zm-9.2-2.37c0 2.54 1.39 4.46 3.43 4.46s3.58-1.99 3.58-4.46c0-2.59-1.51-4.56-3.58-4.56-1.99 0-3.43 1.97-3.43 4.56z"/>
    <path d="M311 383c0 1.2-0.02 2.52-0.07 3.17h0.05c0.86-1.34 2.28-2.26 4.06-2.26 3.46 0 4.58 2.28 4.58 5.52v7.01h-2.28v-6.05c0-2.4-0.26-4.58-2.86-4.58-1.2 0-2.28 0.7-2.9 1.75-0.38 0.67-0.58 1.58-0.58 3.02v5.86h-2.28v-18.2h2.28z"/>
    <path d="M324 390c0.1 2.47 1.78 3.94 4.25 3.94 1.42 0 2.47-0.34 3.58-0.91l0.07 2.09c-1.1 0.5-2.33 0.74-3.79 0.74-4.08 0-6.41-2.47-6.41-6.5 0-3.86 2.35-6.31 5.83-6.31 3.22 0 5.26 1.94 5.26 6.07 0 0.24-0.02 0.62-0.05 0.89h-8.74zm6.55-1.75c0-2.35-1.3-3.48-3.1-3.48s-3.22 1.3-3.41 3.48z"/>
    <path d="M338 382h-2.54v-2.52h2.54zm-0.12 14.4h-2.3v-12.2h2.3z"/>
    <path d="M345 384h3.29v1.8h-3.29v5.38c0 1.94 0.26 3.29 2.11 3.29 0.48 0 0.89-0.1 1.32-0.29l0.07 1.8c-0.55 0.22-1.25 0.34-1.94 0.34-3.1 0-3.82-1.87-3.82-4.51v-6h-2.81v-1.8h2.81v-2.88l2.26-0.77z"/>
  </g>
  
  <!-- Blue wave at the bottom -->
  <path class="wave" d="M165,80c-4.35,12.95-14.05,23.9-25.45,31.85c-11.4,8.05-24.9,12.9-38.65,14.7c-13.75,1.87-27.8,0.75-41.05-2.84c-13.25-3.58-25.9-10.55-36.55-18.95c12.15,5.9,24.85,11.2,37.75,13.65c12.9,2.46,26.1,2.94,38.95,1.24c12.85-1.74,25.45-5.7,36.65-12.35c11.2-6.65,21.4-15.6,28.35-27.3z" />
</svg>
