<?xml version="1.0" encoding="UTF-8"?>
<svg version="1.1" xmlns="http://www.w3.org/2000/svg" width="1999" height="533" viewBox="0 0 1999 533" fill="none" xml:space="preserve">
<path d="M0 0 C659.67 0 1319.34 0 1999 0 C1999 175.89 1999 351.78 1999 533 C1339.33 533 679.66 533 0 533 C0 357.11 0 181.22 0 0 Z " fill="none" transform="translate(0,0)"/>
<path d="M0 0 C84.15 0 168.3 0 255 0 C249.25154321 29.89197531 249.25154321 29.89197531 246.6875 40.625 C245.800625 44.37875 244.91375 48.1325 244 52 C253.9 52 263.8 52 274 52 C275.0828125 45.8125 275.0828125 45.8125 276.1875 39.5 C278.52668958 26.27223497 281.19620937 13.13776181 284 0 C297.86 0 311.72 0 326 0 C324.74884866 8.13248369 323.45630341 16.17604741 321.85546875 24.234375 C321.64918854 25.28377258 321.44290833 26.33317017 321.2303772 27.41436768 C320.55216409 30.86012627 319.86993631 34.30507554 319.1875 37.75 C318.70844071 40.17835844 318.22952119 42.60674446 317.75073242 45.03515625 C311.89451527 74.70214882 305.94680519 104.35106347 300 134 C286.14 134 272.28 134 258 134 C258.66480276 127.35197244 259.44695001 121.08620495 260.8125 114.59765625 C261.07317261 113.33108437 261.07317261 113.33108437 261.33911133 112.03892517 C261.70318469 110.27472451 262.06966135 108.51101819 262.43847656 106.74780273 C263.00348049 104.04585571 263.56094034 101.34243389 264.1171875 98.63867188 C264.47352507 96.91657696 264.83028076 95.1945685 265.1875 93.47265625 C265.43753784 92.26332176 265.43753784 92.26332176 265.69262695 91.02955627 C266.33680917 87.95651845 267.00613483 84.98159552 268 82 C258.1 82 248.2 82 238 82 C236.9171875 87.9090625 236.9171875 87.9090625 235.8125 93.9375 C233.34660682 107.32094966 230.69852873 120.66155797 228 134 C214.14 134 200.28 134 186 134 C187.18379512 126.89722926 188.3730667 119.83221534 189.77172852 112.77490234 C189.93622498 111.93755554 190.10072144 111.10020874 190.27020264 110.23748779 C190.80460998 107.51994074 191.34160638 104.80291402 191.87890625 102.0859375 C192.25486763 100.17975242 192.63075649 98.27355304 193.00657654 96.36734009 C193.78953452 92.39845856 194.57387997 88.42985426 195.35913086 84.46142578 C196.36664318 79.36876745 197.36983271 74.27526801 198.37191868 69.18153954 C199.1445519 65.25733942 199.9198401 61.33366742 200.69590569 57.41014481 C201.0672246 55.530789 201.43761615 53.65124972 201.80706978 51.77152634 C202.32117408 49.15751321 202.83893675 46.54425102 203.35766602 43.93115234 C203.5860038 42.76397171 203.5860038 42.76397171 203.81895447 41.57321167 C204.88581053 36.22837893 204.88581053 36.22837893 206 34 C194.45 34 182.9 34 171 34 C170.67 36.97 170.34 39.94 170 43 C169.75988048 44.50173746 169.5007197 46.00089743 169.203125 47.49230957 C169.05174072 48.26051025 168.90035645 49.02871094 168.74438477 49.82019043 C168.58123779 50.62782837 168.41809082 51.43546631 168.25 52.26757812 C168.075896 53.14510742 167.90179199 54.02263672 167.72241211 54.92675781 C167.15211378 57.79570245 166.57626567 60.66349852 166 63.53125 C165.60003561 65.53376859 165.20029954 67.53633279 164.80078125 69.53894043 C163.96604015 73.71852219 163.12853852 77.89753864 162.2890625 82.07617188 C161.21106784 87.44324392 160.14004441 92.81167964 159.07104492 98.18054962 C158.24857191 102.3073258 157.42245667 106.43336621 156.59521484 110.55918884 C156.19855694 112.539804 155.80304812 114.52064962 155.40869141 116.50172424 C154.85950245 119.25776867 154.30543069 122.01278585 153.75 124.76757812 C153.58685303 125.59140991 153.42370605 126.4152417 153.25561523 127.26403809 C152.11426878 132.88573122 152.11426878 132.88573122 151 134 C147.97022196 134.08871273 144.96332978 134.1151935 141.93359375 134.09765625 C141.02497086 134.0962413 140.11634796 134.09482635 139.18019104 134.09336853 C136.26592779 134.08775193 133.35174019 134.07519665 130.4375 134.0625 C128.46679798 134.05748714 126.49609476 134.05292386 124.52539062 134.04882812 C119.68356441 134.03777711 114.84179505 134.02050138 110 134 C110.55368508 127.43666181 111.44688371 121.05416902 112.76586914 114.60302734 C113.03367896 113.26307425 113.03367896 113.26307425 113.30689907 111.89605141 C113.87849662 109.04175699 114.45665977 106.18884071 115.03515625 103.3359375 C115.39199871 101.55908853 115.74840476 99.78215185 116.10437012 98.00512695 C117.41847274 91.46069009 118.74098324 84.91794376 120.0625 78.375 C123.011875 63.73125 125.96125 49.0875 129 34 C97.65 34 66.3 34 34 34 C33.67 36.97 33.34 39.94 33 43 C32.34 45.97 31.68 48.94 31 52 C50.8 52 70.6 52 91 52 C89.02 61.9 87.04 71.8 85 82 C65.2 82.33 45.4 82.66 25 83 C24.01 88.61 23.02 94.22 22 100 C41.47 100 60.94 100 81 100 C79.25005735 111.37462725 77.15337053 122.69480474 75 134 C41.34 134 7.68 134 -27 134 C-23.52765507 112.00848211 -23.52765507 112.00848211 -21.3745575 101.36830139 C-21.21896551 100.59708513 -21.06337353 99.82586887 -20.90306664 99.03128242 C-20.74298433 98.23849829 -20.58290203 97.44571415 -20.41796875 96.62890625 C-20.077623 94.92957637 -19.73756781 93.23018827 -19.39778137 91.53074646 C-18.69001893 87.99502992 -17.97972082 84.45983647 -17.26733398 80.92504883 C-16.3727022 76.48562671 -15.48308056 72.04521996 -14.59513664 67.60445595 C-11.34494986 51.35434581 -8.06742404 35.11050448 -4.61328125 18.90234375 C-4.37538376 17.78146866 -4.13748627 16.66059357 -3.89237976 15.50575256 C-3.67048477 14.47510178 -3.44858978 13.44445099 -3.2199707 12.38256836 C-2.93679741 11.06523964 -2.93679741 11.06523964 -2.64790344 9.72129822 C-1.87003653 6.45413262 -0.92264787 3.22926754 0 0 Z " fill="#101010" transform="translate(1036,205)"/>
<path d="M0 0 C8.24071456 5.52450138 11.83683503 14.32037962 13.78515625 23.78125 C14.16904592 28.23350547 14.25971729 32.65321009 14.23120117 37.12109375 C14.22269563 39.14687102 14.25153934 41.16981215 14.28320312 43.1953125 C14.27698747 55.87524564 11.55955205 67.60836033 2.66015625 77.03125 C-6.44562855 82.57390161 -15.63281506 84.12408878 -26.21484375 82.78125 C-32.17893439 80.84177065 -35.77285862 78.22323513 -40.21484375 73.78125 C-40.54484375 86.32125 -40.87484375 98.86125 -41.21484375 111.78125 C-46.16484375 111.78125 -51.11484375 111.78125 -56.21484375 111.78125 C-56.21484375 74.16125 -56.21484375 36.54125 -56.21484375 -2.21875 C-51.59484375 -2.21875 -46.97484375 -2.21875 -42.21484375 -2.21875 C-41.55484375 0.09125 -40.89484375 2.40125 -40.21484375 4.78125 C-39.79074219 4.38292969 -39.36664063 3.98460937 -38.9296875 3.57421875 C-27.87045763 -6.41554713 -13.14195818 -7.23155371 0 0 Z " fill="#111111" transform="translate(319.21484375,257.21875)"/>
<path d="M0 0 C7.62431512 5.51317319 12.13485654 12.6935578 13.94091797 21.98681641 C14.6198899 27.09573162 14.65328847 32.22798378 14.6875 37.375 C14.69765137 38.46280762 14.70780273 39.55061523 14.71826172 40.67138672 C14.59764777 51.9394479 12.87245488 62.61840747 5.25 71.3125 C-2.96858313 79.21294443 -12.17984853 81.93605905 -23.3425293 81.85986328 C-32.39812968 81.48745335 -39.94225272 78.28756414 -46.75 72.3125 C-58.15744611 59.24090881 -57.85408679 42.67632293 -56.75 26.3125 C-55.55566286 16.5505212 -51.81221608 7.25040188 -44 0.9375 C-30.40224116 -8.0764569 -14.0219695 -8.54827709 0 0 Z " fill="#121212" transform="translate(606.75,258.6875)"/>
<path d="M0 0 C1.23169922 0.01135986 1.23169922 0.01135986 2.48828125 0.02294922 C14.07526632 0.33058816 26.60293597 3.10780511 35.875 10.4375 C36.84765625 12.296875 36.84765625 12.296875 36.875 14.4375 C35.66015625 17.015625 35.66015625 17.015625 33.9375 19.6875 C33.37160156 20.57953125 32.80570312 21.4715625 32.22265625 22.390625 C31.77792969 23.06609375 31.33320313 23.7415625 30.875 24.4375 C30.18664062 24.16035156 29.49828125 23.88320312 28.7890625 23.59765625 C25.61749892 22.33498281 22.43566174 21.10166286 19.25 19.875 C18.12335938 19.44058594 16.99671875 19.00617188 15.8359375 18.55859375 C10.53380266 16.55105721 6.29944509 16.15667452 0.6875 16.0625 C-0.13814453 16.02511719 -0.96378906 15.98773438 -1.81445312 15.94921875 C-8.1635825 15.85916018 -12.18115866 17.46198531 -17.125 21.4375 C-21.18684273 25.7613971 -21.44072269 30.47159672 -21.328125 36.1953125 C-20.95423577 40.32247437 -19.69539052 43.05602864 -16.56640625 45.80859375 C-9.31124731 50.89173005 -0.62436781 52.00860442 7.91845703 53.50708008 C20.74831175 55.77480129 32.08797508 59.31974171 39.875 70.4375 C44.65735014 79.3645536 44.12672335 90.24873263 41.375 99.8125 C37.87758685 108.89843696 32.06178887 114.50193604 23.26953125 118.46484375 C22.47933594 118.78582031 21.68914062 119.10679687 20.875 119.4375 C20.02035156 119.79714844 19.16570312 120.15679687 18.28515625 120.52734375 C4.88069223 125.58932125 -13.63997839 123.27883167 -26.484375 117.59765625 C-38.97830822 111.68013721 -38.97830822 111.68013721 -42.125 107.4375 C-42.07505276 103.81275761 -39.92628826 101.7661781 -37.5625 99.1875 C-36.92183594 98.48109375 -36.28117188 97.7746875 -35.62109375 97.046875 C-35.12738281 96.51578125 -34.63367188 95.9846875 -34.125 95.4375 C-29.58011249 97.13960493 -25.31807177 99.30163741 -21 101.5 C-19.58168585 102.22193468 -18.1624495 102.94206116 -16.7421875 103.66015625 C-16.11940918 103.97734619 -15.49663086 104.29453613 -14.85498047 104.62133789 C-10.06983877 106.8788497 -5.61922941 106.65756943 -0.4375 106.6875 C0.43583984 106.708125 1.30917969 106.72875 2.20898438 106.75 C9.43326978 106.79316227 15.38329121 105.56344673 21.25 101.0625 C25.36724098 96.94525902 26.17619251 93.23484213 26.25 87.5 C26.12897932 82.30884974 25.73055523 79.1990173 21.875 75.4375 C15.04194133 71.44319612 7.64421904 70.22417157 -0.0625 68.9375 C-20.66067617 65.48662127 -20.66067617 65.48662127 -28.5625 58 C-29.36558594 57.25878906 -30.16867188 56.51757812 -30.99609375 55.75390625 C-37.71320935 48.44519148 -38.58818736 40.81495616 -38.4375 31.19921875 C-37.74546079 22.86879671 -34.05867225 15.34576038 -28.125 9.4375 C-19.64028061 3.06311968 -10.57874132 -0.13907778 0 0 Z " fill="#121212" transform="translate(200.125,217.5625)"/>
<path d="M0 0 C4.62 0 9.24 0 14 0 C12.35291943 10.51469619 10.15471457 20.86642302 7.88085938 31.25830078 C7.40407505 33.44229592 6.93226467 35.62732173 6.4609375 37.8125 C6.18040527 39.09769531 5.89987305 40.38289063 5.61083984 41.70703125 C4.87840878 45.09729383 4.87840878 45.09729383 5 49 C5.56847656 48.59007812 6.13695312 48.18015625 6.72265625 47.7578125 C7.49480469 47.21898437 8.26695313 46.68015625 9.0625 46.125 C9.81660156 45.59132812 10.57070312 45.05765625 11.34765625 44.5078125 C18.98435098 40.16648089 27.45934596 40.1423611 36 41 C44.55139075 43.50721404 49.47705946 48.71100108 53.875 56.1875 C57.58073906 68.74583792 53.24389351 82.36427562 50.6875 94.8125 C50.27824067 96.84679301 49.87003026 98.88129733 49.46289062 100.91601562 C48.6785783 104.82790371 47.88656845 108.73809301 47.08740234 112.64697266 C46.40010128 116.01355496 45.7262993 119.38207483 45.07275391 122.75537109 C44.93513138 123.4619133 44.79750885 124.16845551 44.65571594 124.89640808 C44.29751129 126.7425158 43.94314822 128.58936778 43.58911133 130.4362793 C43 133 43 133 42 134 C37.66684941 134.1438629 33.33487639 134.04208618 29 134 C30.04570556 126.11634592 31.5019061 118.37074244 33.1640625 110.59765625 C33.36191345 109.66601654 33.5597644 108.73437683 33.76361084 107.77450562 C34.58892001 103.89476159 35.41632083 100.01565407 36.26464844 96.14086914 C41.37873531 77.48187628 41.37873531 77.48187628 38.3125 59.3125 C34.05344277 55.05344277 30.72749512 53.56973353 24.6875 53.5625 C17.66924198 53.76030885 13.17535757 54.98501403 8.06640625 59.8359375 C2.94930874 65.38921172 -0.01787082 70.86614385 -1.4296875 78.33984375 C-1.66534424 79.55712158 -1.90100098 80.77439941 -2.14379883 82.02856445 C-2.38509521 83.31851318 -2.6263916 84.60846191 -2.875 85.9375 C-3.39317359 88.63879097 -3.91733915 91.33890959 -4.44140625 94.0390625 C-4.57139511 94.71316666 -4.70138397 95.38727081 -4.83531189 96.08180237 C-6.22880588 103.26996904 -7.80709237 110.41511505 -9.43896484 117.55249023 C-10.66636592 123.03243859 -11.47408523 128.40720747 -12 134 C-16.62 134 -21.24 134 -26 134 C-25.44930672 126.58958388 -24.40693102 119.60770056 -22.75 112.375 C-21.00465505 104.65785412 -19.34973884 96.92991578 -17.81640625 89.16796875 C-17.38014357 86.97361333 -16.94377553 84.77927885 -16.50732422 82.58496094 C-16.26890808 81.3842395 -16.03049194 80.18351807 -15.78485107 78.94641113 C-14.43959397 72.17677694 -13.08305152 65.40939226 -11.72859573 58.64159393 C-10.89487876 54.47532672 -10.06172688 50.3089465 -9.22851562 46.14257812 C-8.89038356 44.45190376 -8.55224878 42.76122993 -8.21411133 41.07055664 C-8.04552612 40.22763062 -7.87694092 39.38470459 -7.70324707 38.51623535 C-5.13549805 25.67749023 -2.56774902 12.83874512 0 0 Z " fill="#131313" transform="translate(1781,205)"/>
<path d="M0 0 C4.29 0 8.58 0 13 0 C12.37687951 6.49784628 11.31535449 12.74939602 9.93359375 19.125 C9.52592396 21.06884935 9.11904868 23.01286547 8.71289062 24.95703125 C8.07992437 27.96843834 7.44216741 30.97846757 6.7902832 33.98583984 C1.57610352 54.07810814 1.57610352 54.07810814 4.40405273 73.8515625 C6.86436103 77.16358835 9.09925427 78.69975142 13 80 C20.80484725 80.9736108 27.5314189 79.03689977 34.01171875 74.6328125 C43.22044902 66.6026399 44.98609306 52.64888675 47 41.25 C47.24748541 39.90331099 47.49636841 38.55687814 47.74658203 37.21069336 C48.25360389 34.48025198 48.75568619 31.74897167 49.25488281 29.01708984 C50.38952313 22.85136729 51.63345602 16.70742504 52.875 10.5625 C53.28909788 8.50130919 53.70316412 6.44011203 54.1171875 4.37890625 C54.40851563 2.93386719 54.69984375 1.48882812 55 0 C59.62 0 64.24 0 69 0 C67.71867176 8.61716287 66.26343659 17.16516548 64.57421875 25.7109375 C64.34475052 26.88097321 64.11528229 28.05100891 63.87886047 29.25650024 C63.39522937 31.71894431 62.91028281 34.18113035 62.42407227 36.64306641 C61.69631553 40.33033504 60.97381608 44.01860482 60.25195312 47.70703125 C57.34379438 62.51172929 54.27078882 77.27117603 51 92 C46.71 92 42.42 92 38 92 C38 89.36 38 86.72 38 84 C37.47792969 84.39832031 36.95585938 84.79664063 36.41796875 85.20703125 C27.97044378 91.28747392 18.4765239 94.45415474 8 93 C0.95564121 91.22304463 -4.74767076 87.98935498 -9 82 C-11.50700608 77.08059184 -12.58099181 72.79181488 -12.5625 67.3125 C-12.56080811 66.55122803 -12.55911621 65.78995605 -12.55737305 65.00561523 C-12.27137046 55.24996182 -9.84875452 45.85691713 -7.6640625 36.38671875 C-5.67689446 27.7599226 -4.11032435 19.0680923 -2.56176758 10.35375977 C-2.36993896 9.28569092 -2.17811035 8.21762207 -1.98046875 7.1171875 C-1.81442139 6.17472168 -1.64837402 5.23225586 -1.47729492 4.26123047 C-1 2 -1 2 0 0 Z " fill="#131313" transform="translate(1473,247)"/>
<path d="M0 0 C5.76199113 4.22252785 9.04169061 11.04176906 10.16015625 17.9375 C10.2450034 20.02246185 10.2779315 22.10984997 10.27368164 24.1965332 C10.27356834 26.05789665 10.27356834 26.05789665 10.27345276 27.9568634 C10.26834697 29.30066977 10.26313099 30.64447571 10.2578125 31.98828125 C10.2559459 33.37118987 10.25452314 34.75409915 10.25352478 36.13700867 C10.24971862 39.76524706 10.23990468 43.393445 10.2288208 47.02166748 C10.2185657 50.72863213 10.2140184 54.43560336 10.20898438 58.14257812 C10.1982806 65.4075726 10.18069931 72.67252546 10.16015625 79.9375 C5.54015625 79.9375 0.92015625 79.9375 -3.83984375 79.9375 C-3.85442627 78.28298828 -3.86900879 76.62847656 -3.8840332 74.92382812 C-3.94214939 68.76605983 -4.01938247 62.6086521 -4.10229492 56.45117188 C-4.13710162 53.78967393 -4.16353136 51.12846857 -4.1862793 48.46679688 C-4.21993964 44.63381503 -4.27226389 40.80146484 -4.328125 36.96875 C-4.33451492 35.78510864 -4.34090485 34.60146729 -4.3474884 33.38195801 C-4.45993428 23.15726862 -4.45993428 23.15726862 -9.2558136 14.38708496 C-14.74527018 9.58014195 -19.66511844 9.59012775 -26.66796875 9.66015625 C-30.79750976 10.02123681 -32.87435546 11.04804987 -35.83984375 13.9375 C-39.92011452 19.23082425 -40.9417918 22.97534778 -41.04516602 29.53222656 C-41.06511124 30.65308655 -41.08505646 31.77394653 -41.10560608 32.92877197 C-41.12231857 34.13305847 -41.13903107 35.33734497 -41.15625 36.578125 C-41.1770311 37.81544373 -41.19781219 39.05276245 -41.21922302 40.32757568 C-41.27350247 43.60888691 -41.32376154 46.89022733 -41.37207031 50.17163086 C-41.42240467 53.52333104 -41.47810735 56.8749372 -41.53320312 60.2265625 C-41.64028888 66.79680679 -41.74158501 73.36711801 -41.83984375 79.9375 C-46.78984375 79.9375 -51.73984375 79.9375 -56.83984375 79.9375 C-56.86296703 69.26330302 -56.88075876 58.58911194 -56.89165592 47.91489506 C-56.89688478 42.95896078 -56.90398249 38.00304358 -56.9152832 33.04711914 C-56.92611197 28.26851164 -56.93212056 23.48992062 -56.93472099 18.7113018 C-56.93657526 16.88396381 -56.94019591 15.05662676 -56.94557381 13.22929573 C-56.95278411 10.67896671 -56.9538347 8.12870663 -56.95336914 5.57836914 C-56.95696442 4.81520386 -56.96055969 4.05203857 -56.96426392 3.26574707 C-56.95389591 -1.94844784 -56.95389591 -1.94844784 -55.83984375 -3.0625 C-53.4867082 -3.13521741 -51.13150707 -3.14620868 -48.77734375 -3.125 C-47.48699219 -3.11597656 -46.19664062 -3.10695312 -44.8671875 -3.09765625 C-43.86816406 -3.08605469 -42.86914062 -3.07445312 -41.83984375 -3.0625 C-41.50984375 -0.7525 -41.17984375 1.5575 -40.83984375 3.9375 C-40.42734375 3.53917969 -40.01484375 3.14085937 -39.58984375 2.73046875 C-28.17132061 -7.74500672 -13.2710237 -7.66394575 0 0 Z " fill="#111111" transform="translate(449.83984375,258.0625)"/>
<path d="M0 0 C20.46 0 40.92 0 62 0 C60.6828281 9.2202033 59.14634746 13.42773165 52.8125 19.875 C51.62551719 21.11643751 50.43931205 22.35861907 49.25390625 23.6015625 C48.68687988 24.19098633 48.11985352 24.78041016 47.53564453 25.38769531 C45.16267104 27.87912885 42.9195316 30.47440399 40.671875 33.078125 C38.64241927 35.41105074 36.572353 37.70511245 34.5 40 C31.81016569 42.98062721 29.13689636 45.97245233 26.5 49 C23.86310364 52.02754767 21.18983431 55.01937279 18.5 58 C12.04703622 65.16388351 5.93464191 72.36974611 0 80 C15.51 80 31.02 80 47 80 C46 89 46 89 45 92 C23.55 92 2.1 92 -20 92 C-17.91279999 81.56399995 -16.05466758 77.84736785 -9.25 70.6875 C-8.16075701 69.52409372 -7.07221081 68.36003466 -5.984375 67.1953125 C-5.46423828 66.64004883 -4.94410156 66.08478516 -4.40820312 65.51269531 C-0.5869987 61.40794798 3.03870238 57.13325559 6.66796875 52.859375 C12.21272324 46.34129539 17.84682421 39.9506654 23.69433594 33.70239258 C27.66135992 29.43580978 31.34897523 25.00784634 34.96484375 20.4375 C37.15198521 17.81796781 39.5869587 15.4130413 42 13 C20.22 12.505 20.22 12.505 -2 12 C-1 2 -1 2 0 0 Z " fill="#141414" transform="translate(1390,247)"/>
<path d="M0 0 C0.77988281 0.00064453 1.55976562 0.00128906 2.36328125 0.00195312 C8.10942293 0.04692293 8.10942293 0.04692293 9.25 1.1875 C9.34873816 3.18549572 9.37971799 5.18707158 9.375 7.1875 C9.37886719 8.8271875 9.37886719 8.8271875 9.3828125 10.5 C9.25 13.1875 9.25 13.1875 8.25 14.1875 C4.69094931 14.39230471 1.13361186 14.50718712 -2.4296875 14.61328125 C-5.71273297 14.90519379 -5.71273297 14.90519379 -7.65234375 16.71484375 C-9.21064171 20.22517333 -9.31978404 23.65992241 -9.4375 27.4375 C-9.540625 29.995 -9.64375 32.5525 -9.75 35.1875 C-3.48 35.1875 2.79 35.1875 9.25 35.1875 C9.34765625 43.68359375 9.34765625 43.68359375 9.25 46.1875 C8.92 46.5175 8.59 46.8475 8.25 47.1875 C2.31 47.1875 -3.63 47.1875 -9.75 47.1875 C-9.75 70.6175 -9.75 94.0475 -9.75 118.1875 C-14.7 118.1875 -19.65 118.1875 -24.75 118.1875 C-24.75 94.7575 -24.75 71.3275 -24.75 47.1875 C-27.72 47.1875 -30.69 47.1875 -33.75 47.1875 C-34.75 46.1875 -34.75 46.1875 -34.8828125 43.9375 C-34.88023437 43.03 -34.87765625 42.1225 -34.875 41.1875 C-34.87757813 40.28 -34.88015625 39.3725 -34.8828125 38.4375 C-34.75 36.1875 -34.75 36.1875 -33.75 35.1875 C-32.23071962 35.11570036 -30.70832518 35.10357993 -29.1875 35.125 C-28.36121094 35.13402344 -27.53492188 35.14304688 -26.68359375 35.15234375 C-26.04550781 35.16394531 -25.40742187 35.17554688 -24.75 35.1875 C-24.79640625 34.07632813 -24.8428125 32.96515625 -24.890625 31.8203125 C-25.43311147 13.4809696 -25.43311147 13.4809696 -19.1015625 6.32421875 C-13.15303855 0.8822285 -7.8494353 -0.12574981 0 0 Z " fill="#131313" transform="translate(724.75,219.8125)"/>
<path d="M0 0 C0 4.62 0 9.24 0 14 C-2.248125 14.103125 -4.49625 14.20625 -6.8125 14.3125 C-11.56106123 14.33418561 -11.56106123 14.33418561 -15.67773438 16.28125 C-17.26055194 18.33867904 -17.41505152 19.44037049 -17.51171875 22.01171875 C-17.54483154 22.69451904 -17.57794434 23.37731934 -17.61206055 24.08081055 C-17.64940308 25.37112183 -17.64940308 25.37112183 -17.6875 26.6875 C-17.790625 29.430625 -17.89375 32.17375 -18 35 C-12.06 35 -6.12 35 0 35 C0 38.96 0 42.92 0 47 C-5.94 47 -11.88 47 -18 47 C-17.99214478 50.17290649 -17.99214478 50.17290649 -17.98413086 53.40991211 C-17.9675936 60.3828656 -17.95652823 67.35581993 -17.94818783 74.3287878 C-17.94295944 78.55831371 -17.9358626 82.7878196 -17.92456055 87.01733398 C-17.91373009 91.09568543 -17.90772283 95.17401757 -17.90512276 99.25238228 C-17.90326879 100.81177639 -17.89964873 102.3711694 -17.89426994 103.93055534 C-17.88705738 106.10729162 -17.88600915 108.28394714 -17.88647461 110.46069336 C-17.884254 111.70201523 -17.88203339 112.9433371 -17.87974548 114.22227478 C-18 117 -18 117 -19 118 C-23.62 118 -28.24 118 -33 118 C-33 94.57 -33 71.14 -33 47 C-35.97 47 -38.94 47 -42 47 C-43 46 -43 46 -43.09765625 43.49609375 C-43.08605469 42.48675781 -43.07445312 41.47742188 -43.0625 40.4375 C-43.05347656 39.42558594 -43.04445313 38.41367187 -43.03515625 37.37109375 C-43.02355469 36.58863281 -43.01195312 35.80617187 -43 35 C-39.7 35 -36.4 35 -33 35 C-33.03480469 33.7934375 -33.06960938 32.586875 -33.10546875 31.34375 C-33.13362984 29.72918072 -33.16092749 28.11459621 -33.1875 26.5 C-33.21263672 25.70851562 -33.23777344 24.91703125 -33.26367188 24.1015625 C-33.34800358 17.24258351 -32.19410912 11.75830861 -27.8125 6.25 C-18.76625883 -0.98699294 -11.09491246 -0.45388278 0 0 Z " fill="#141414" transform="translate(678,220)"/>
<path d="M0 0 C3.27459646 2.78149202 6.1901748 5.75309088 9 9 C7.33333333 10.66666667 5.66666667 12.33333333 4 14 C2.9171875 15.1446875 2.9171875 15.1446875 1.8125 16.3125 C0 18 0 18 -2 18 C-3.296875 16.5390625 -3.296875 16.5390625 -4.75 14.625 C-8.36816276 10.34033357 -11.09458566 9.30317367 -16.6953125 8.71875 C-25.22843653 8.28227307 -31.49374726 10.1098365 -38 15.7265625 C-48.04559694 26.2484593 -51.21726464 40.77858161 -51.375 54.875 C-51.38893799 55.68388672 -51.40287598 56.49277344 -51.41723633 57.32617188 C-51.37725088 62.33214189 -50.59109369 65.59382545 -48 70 C-47.67 70.99 -47.34 71.98 -47 73 C-44.6569191 74.12085312 -44.6569191 74.12085312 -42 75 C-41.05253906 75.51240234 -41.05253906 75.51240234 -40.0859375 76.03515625 C-34.68691599 78.53245646 -28.87029413 77.18593138 -23.4375 75.375 C-18.22375854 73.3335632 -14.2946476 70.56536782 -10 67 C-7.69 69.97 -5.38 72.94 -3 76 C-7.0370971 81.78650584 -11.58728101 84.23451494 -18 87 C-19.07701172 87.55107422 -19.07701172 87.55107422 -20.17578125 88.11328125 C-28.66732153 90.77936651 -41.68561839 90.75653709 -49.8125 87.0625 C-57.71672654 82.00040143 -62.82005343 75.30731134 -65.375 66.28515625 C-68.45024378 50.12090616 -64.40252315 30.30793105 -55.37109375 16.51171875 C-53.66830794 14.24514704 -51.8842263 12.11720005 -50 10 C-49.47792969 9.37351562 -48.95585938 8.74703125 -48.41796875 8.1015625 C-37.00218902 -4.61967136 -14.98548333 -8.97715275 0 0 Z " fill="#131313" transform="translate(1740,250)"/>
<path d="M0 0 C2.64 0 5.28 0 8 0 C8 87.78 8 175.56 8 266 C5.36 266 2.72 266 0 266 C0 178.22 0 90.44 0 0 Z " fill="#0F0F0F" transform="translate(868,139)"/>
<path d="M0 0 C5.44805851 4.02118605 9.02164735 8.27170981 10.625 14.9375 C10.90928735 18.87845201 10.90398802 22.80038287 10.875 26.75 C10.88660156 28.31331055 10.88660156 28.31331055 10.8984375 29.90820312 C10.8568716 46.46182319 10.8568716 46.46182319 5.3125 52.375 C4.73886719 53.01308594 4.16523437 53.65117187 3.57421875 54.30859375 C-1.61616014 58.64604464 -7.41853537 58.47523222 -13.9140625 58.38671875 C-20.17115708 57.57456765 -23.46726662 54.35396228 -27.25 49.5625 C-30.22766274 42.61462027 -30.71452782 36.02217896 -30.6875 28.5625 C-30.70361328 27.68078125 -30.71972656 26.7990625 -30.73632812 25.890625 C-30.74180773 18.41644528 -29.72833583 10.63934783 -25.125 4.5 C-18.08668067 -2.05843392 -9.06577177 -2.85403926 0 0 Z " fill="#FCFCFC" transform="translate(595.375,268.0625)"/>
<path d="M0 0 C4.14137638 2.48657694 6.79063606 6.01016854 8.5 10.5 C9.57885721 16.80135073 9.71504705 23.05421791 9.75 29.4375 C9.770625 30.37529297 9.79125 31.31308594 9.8125 32.27929688 C9.85417725 39.77599174 8.98760338 46.4073039 4.1875 52.375 C-2.74398717 57.85571079 -8.81000728 58.46435081 -17.5 57.5 C-21.64326045 56.23121609 -24.05368666 54.04281352 -26.8125 50.6875 C-30.8823147 43.00007223 -30.89552874 35.7543012 -30.9375 27.1875 C-30.97037109 26.01509766 -31.00324219 24.84269531 -31.03710938 23.63476562 C-31.08504332 15.83024746 -29.94321078 10.01324149 -25.5 3.5 C-18.958971 -2.88529021 -8.33239544 -3.6165464 0 0 Z " fill="#FCFCFC" transform="translate(308.5,268.5)"/>
<path d="M0 0 C2.11714386 1.60902933 3.47062421 3.28877256 4.953125 5.484375 C3.87631998 6.61562522 2.79136865 7.73912419 1.703125 8.859375 C1.09984375 9.48585938 0.4965625 10.11234375 -0.125 10.7578125 C-2.0169338 12.45747661 -3.72888809 13.46897366 -6.046875 14.484375 C-6.81 13.845 -7.573125 13.205625 -8.359375 12.546875 C-13.02426782 8.96684098 -17.38872518 8.98756185 -23.046875 9.484375 C-30.51898791 11.10814908 -35.73671292 15.38215735 -40.234375 21.421875 C-45.99429223 32.65280125 -47.38705081 46.86985695 -49.609375 59.171875 C-51.46205444 69.37034613 -53.39242987 79.45557469 -56.046875 89.484375 C-60.336875 89.484375 -64.626875 89.484375 -69.046875 89.484375 C-68.38597568 81.85861365 -66.92001697 74.4465282 -65.37924194 66.95870972 C-64.58595171 63.10066304 -63.80642137 59.23984427 -63.02734375 55.37890625 C-62.86516861 54.57590591 -62.70299347 53.77290558 -62.53590393 52.9455719 C-60.23031684 41.48382488 -58.0907555 29.99028276 -55.93579102 18.4994812 C-55.30885197 15.16059985 -54.67809528 11.82244979 -54.046875 8.484375 C-53.84658691 7.41590332 -53.64629883 6.34743164 -53.43994141 5.24658203 C-53.2651123 4.33634277 -53.0902832 3.42610352 -52.91015625 2.48828125 C-52.76489502 1.72459229 -52.61963379 0.96090332 -52.4699707 0.17407227 C-52.046875 -1.515625 -52.046875 -1.515625 -51.046875 -2.515625 C-48.86048047 -2.58821446 -46.67187111 -2.59936283 -44.484375 -2.578125 C-42.68806641 -2.56458984 -42.68806641 -2.56458984 -40.85546875 -2.55078125 C-39.92863281 -2.53917969 -39.00179688 -2.52757812 -38.046875 -2.515625 C-38.376875 0.454375 -38.706875 3.424375 -39.046875 6.484375 C-38.0775 5.576875 -37.108125 4.669375 -36.109375 3.734375 C-25.61426435 -5.07066813 -12.22716679 -6.73741843 0 0 Z " fill="#141414" transform="translate(1623.046875,249.515625)"/>
<path d="M0 0 C4.29 0 8.58 0 13 0 C12.29746223 9.71122405 10.33558921 19.12789219 8.4375 28.66015625 C8.08230241 30.45944936 7.72740825 32.25880239 7.37280273 34.05821228 C6.63271756 37.80820768 5.88935639 41.55753393 5.14355469 45.30639648 C4.18602087 50.12068077 3.23621975 54.93645242 2.28874207 59.75272465 C1.55899564 63.45831131 0.82551648 67.1631512 0.09085083 70.86776543 C-0.26110889 72.64464185 -0.61196118 74.421738 -0.96170044 76.19905281 C-1.44857283 78.67000615 -1.94038098 81.13992472 -2.43359375 83.60961914 C-2.57803925 84.34772324 -2.72248474 85.08582733 -2.87130737 85.84629822 C-3.88568317 90.88568317 -3.88568317 90.88568317 -5 92 C-7.18639453 92.07258946 -9.37500389 92.08373783 -11.5625 92.0625 C-12.76003906 92.05347656 -13.95757813 92.04445313 -15.19140625 92.03515625 C-16.58166016 92.01775391 -16.58166016 92.01775391 -18 92 C-17.40121465 83.66523906 -15.85657766 75.58156637 -14.19921875 67.40234375 C-13.91842927 66.00011342 -13.63798491 64.59781395 -13.35786438 63.19544983 C-12.77161252 60.26583544 -12.18211904 57.33689909 -11.59008789 54.40844727 C-10.84194173 50.70712448 -10.10053273 47.00449318 -9.3612957 43.30138206 C-3.5479575 14.19859832 -3.5479575 14.19859832 0 0 Z " fill="#161616" transform="translate(1648,247)"/>
<path d="M0 0 C4.62 0 9.24 0 14 0 C15.74292177 1.74292177 15.11980303 4.00623495 15.12442017 6.32824707 C15.12082489 7.09141235 15.11722961 7.85457764 15.11352539 8.64086914 C15.11367142 9.44080795 15.11381744 10.24074677 15.1139679 11.06492615 C15.11326855 13.72169665 15.10547518 16.37839793 15.09765625 19.03515625 C15.09579215 20.87218691 15.09436821 22.70921806 15.09336853 24.54624939 C15.08954275 29.39109662 15.07971196 34.23591408 15.06866455 39.08074951 C15.05845172 44.02062578 15.05387119 48.96050685 15.04882812 53.90039062 C15.03808974 63.60027353 15.0210126 73.30013429 15 83 C10.05 83 5.1 83 0 83 C0 55.61 0 28.22 0 0 Z " fill="#131313" transform="translate(354,255)"/>
<path d="M0 0 C16.17 0 32.34 0 49 0 C49 4.62 49 9.24 49 14 C32.83 14 16.66 14 0 14 C0 9.38 0 4.76 0 0 Z " fill="#141414" transform="translate(482,285)"/>
<path d="M0 0 C4.95 0 9.9 0 15 0 C15 5.28 15 10.56 15 16 C10.05 16 5.1 16 0 16 C0 10.72 0 5.44 0 0 Z " fill="#0F0F0F" transform="translate(354,220)"/>
<path d="M0 0 C4.62 0 9.24 0 14 0 C13.51171875 2.66927083 13.0234375 5.33854167 12.53515625 8.0078125 C11.99980717 11.00107815 11.49989831 14.00061014 11 17 C6.38 17 1.76 17 -3 17 C-1.125 4.5 -1.125 4.5 0 0 Z " fill="#191919" transform="translate(1656,205)"/>
<path d="M0 0 C4.62 0 9.24 0 14 0 C12.125 11.375 12.125 11.375 11 17 C6.38 17 1.76 17 -3 17 C-2.01 11.39 -1.02 5.78 0 0 Z " fill="#181818" transform="translate(1491,205)"/>
<path d="M0 0 C4.29 0 8.58 0 13 0 C12.69188262 2.45895618 12.37871012 4.91708307 12.0625 7.375 C11.93198242 8.42300781 11.93198242 8.42300781 11.79882812 9.4921875 C11.11328125 14.7734375 11.11328125 14.7734375 10 17 C5.71 17 1.42 17 -3 17 C-2.44915905 11.1243632 -1.55242359 5.69221983 0 0 Z " fill="#161616" transform="translate(1527,205)"/>
</svg>
