<svg width="247" height="49" viewBox="0 0 247 49" fill="none" xmlns="http://www.w3.org/2000/svg">
<path d="M61.5511 46.0372L60.6409 43.6442H56.6588L55.7486 46.0372H53.3594L57.569 35.0977H59.7307L63.8266 46.0372H61.5511ZM59.2756 39.5418C59.0481 38.8581 58.8205 38.2884 58.7068 37.8325C58.593 38.2884 58.3654 38.8581 58.1379 39.5418L57.4552 41.593H59.9583L59.2756 39.5418Z" fill="#232D30"/>
<path d="M69.7433 46.2643C69.0607 46.2643 68.378 46.0364 68.0367 45.5806V47.9736L65.875 48.9992V37.8317H68.0367V38.4015C68.4918 38.0596 68.9469 37.7178 69.7433 37.7178C71.4499 37.7178 72.929 39.0852 72.929 42.048C72.929 44.555 71.7913 46.2643 69.7433 46.2643ZM69.402 39.7689C68.7194 39.7689 68.378 39.9968 68.0367 40.4527V43.5294C68.378 43.9852 68.8331 44.2131 69.5158 44.2131C70.3122 44.2131 70.7673 43.5294 70.7673 42.162C70.7673 40.4527 70.1984 39.7689 69.402 39.7689Z" fill="#232D30"/>
<path d="M79.3 46.2643C78.6173 46.2643 77.9347 46.0364 77.5933 45.5806V47.9736L75.4316 48.9992V37.8317H77.5933V38.4015C78.0484 38.0596 78.5035 37.7178 79.3 37.7178C81.0066 37.7178 82.4856 39.0852 82.4856 42.048C82.4856 44.555 81.3479 46.2643 79.3 46.2643ZM78.9586 39.7689C78.276 39.7689 77.9347 39.9968 77.5933 40.4527V43.5294C77.9347 43.9852 78.3898 44.2131 79.0724 44.2131C79.8688 44.2131 80.3239 43.5294 80.3239 42.162C80.3239 40.4527 79.7551 39.7689 78.9586 39.7689Z" fill="#232D30"/>
<path d="M91.5877 42.6178H86.6954C86.8092 43.7573 87.6056 44.2131 88.402 44.2131C88.9709 44.2131 89.5398 43.9852 89.7673 43.6434L91.2464 44.8968C90.5637 45.6945 89.426 46.2643 88.2882 46.2643C85.899 46.2643 84.4199 44.555 84.4199 42.048C84.4199 39.541 86.0128 37.7178 88.0607 37.7178C90.2224 37.7178 91.4739 39.655 91.4739 42.048C91.7015 42.2759 91.5877 42.5038 91.5877 42.6178ZM88.0607 39.541C87.2643 39.541 86.8092 40.2248 86.6954 41.0224H89.5398C89.5398 40.3387 89.0847 39.541 88.0607 39.541Z" fill="#232D30"/>
<path d="M99.0954 46.0371V41.5929C99.0954 40.1115 98.6403 39.6557 97.7301 39.6557C96.8199 39.6557 96.3648 40.1115 96.3648 41.4789V45.9231H94.2031V37.7184H96.3648V38.2882C96.7061 37.9464 97.3888 37.6045 98.299 37.6045C100.347 37.6045 101.371 39.0859 101.371 41.365V46.0371H99.0954Z" fill="#232D30"/>
<path d="M103.875 46.0377V44.4423L106.833 40.9098C107.174 40.5679 107.63 39.9981 107.857 39.7702C107.516 39.7702 106.947 39.7702 106.492 39.7702H104.103V37.833H110.588V39.4284L107.743 42.9609C107.402 43.4167 106.947 43.8725 106.719 44.1004C107.061 44.1004 107.63 44.1004 108.085 44.1004H110.588V46.0377H103.875Z" fill="#232D30"/>
<path d="M119.803 42.6178H114.91C115.024 43.7573 115.82 44.2131 116.617 44.2131C117.186 44.2131 117.755 43.9852 117.982 43.6434L119.461 44.8968C118.779 45.6945 117.641 46.2643 116.503 46.2643C114.114 46.2643 112.635 44.555 112.635 42.048C112.635 39.541 114.228 37.7178 116.276 37.7178C118.437 37.7178 119.689 39.655 119.689 42.048C119.916 42.2759 119.803 42.5038 119.803 42.6178ZM116.276 39.541C115.479 39.541 115.024 40.2248 114.91 41.0224H117.755C117.755 40.3387 117.3 39.541 116.276 39.541Z" fill="#232D30"/>
<path d="M122.42 46.0363V35.7805L124.582 34.7549V46.1502H122.42V46.0363Z" fill="#232D30"/>
<path d="M127.652 46.0363V35.7805L129.814 34.7549V46.1502H127.652V46.0363Z" fill="#232D30"/>
<path d="M145.629 46.0372L144.719 43.6442H140.737L139.827 46.0372H137.438L141.647 35.0977H143.809L147.905 46.0372H145.629ZM143.354 39.5418C143.126 38.8581 142.899 38.2884 142.785 37.8325C142.671 38.2884 142.444 38.8581 142.216 39.5418L141.533 41.4791H144.036L143.354 39.5418Z" fill="#232D30"/>
<path d="M154.731 46.0364V45.4666C154.389 45.8085 153.707 46.1503 152.797 46.1503C150.749 46.1503 149.725 44.6689 149.725 42.3899V37.7178H151.886V42.162C151.886 43.6434 152.341 44.0992 153.252 44.0992C154.162 44.0992 154.617 43.6434 154.617 42.2759V37.8317H156.779V46.0364H154.731Z" fill="#232D30"/>
<path d="M162.923 46.2649C161.671 46.2649 160.42 45.923 159.51 45.3533L160.192 43.7579C161.103 44.2137 162.013 44.5556 163.037 44.5556C163.833 44.5556 164.175 44.3277 164.175 43.9858C164.175 43.644 163.833 43.4161 162.923 43.1882C160.989 42.6184 159.737 42.1626 159.737 40.3393C159.737 38.63 161.103 37.9463 163.037 37.9463C164.061 37.9463 165.198 38.2882 166.109 38.744L165.426 40.4533C164.63 39.9975 163.719 39.7695 163.037 39.7695C162.127 39.7695 161.899 39.9975 161.899 40.3393C161.899 40.6812 162.127 40.7951 163.606 41.2509C165.085 41.7068 166.336 42.2765 166.336 43.8719C166.222 45.5812 164.743 46.2649 162.923 46.2649Z" fill="#232D30"/>
<path d="M171.909 46.2649C170.658 46.2649 169.406 45.923 168.496 45.3533L169.179 43.7579C170.089 44.2137 170.999 44.5556 172.023 44.5556C172.82 44.5556 173.161 44.3277 173.161 43.9858C173.161 43.644 172.82 43.4161 171.909 43.1882C169.975 42.6184 168.724 42.1626 168.724 40.3393C168.724 38.63 170.089 37.9463 172.023 37.9463C173.047 37.9463 174.185 38.2882 175.095 38.744L174.412 40.4533C173.616 39.9975 172.706 39.7695 172.023 39.7695C171.113 39.7695 170.885 39.9975 170.885 40.3393C170.885 40.6812 171.113 40.7951 172.592 41.2509C174.071 41.7068 175.323 42.2765 175.323 43.8719C175.209 45.5812 173.73 46.2649 171.909 46.2649Z" fill="#232D30"/>
<path d="M184.426 42.6178H179.533C179.647 43.7573 180.443 44.2131 181.24 44.2131C181.809 44.2131 182.378 43.9852 182.605 43.6434L184.084 44.8968C183.402 45.6945 182.264 46.2643 181.126 46.2643C178.737 46.2643 177.258 44.555 177.258 42.048C177.258 39.541 178.851 37.7178 180.899 37.7178C183.06 37.7178 184.312 39.655 184.312 42.048C184.426 42.2759 184.426 42.5038 184.426 42.6178ZM180.899 39.541C180.102 39.541 179.647 40.2248 179.533 41.0224H182.378C182.264 40.3387 181.809 39.541 180.899 39.541Z" fill="#232D30"/>
<path d="M191.706 40.3387C191.365 39.9968 190.91 39.7689 190.455 39.7689C189.658 39.7689 189.089 40.1108 189.089 41.5922V46.0364H186.928V37.8317H189.089V38.4015C189.431 38.0596 190 37.7178 190.796 37.7178C191.479 37.7178 192.048 37.9457 192.275 38.2875L191.706 40.3387Z" fill="#232D30"/>
<path d="M199.103 40.3387C198.761 39.9968 198.306 39.7689 197.851 39.7689C197.055 39.7689 196.486 40.1108 196.486 41.5922V46.0364H194.324V37.8317H196.486V38.4015C196.827 38.0596 197.396 37.7178 198.193 37.7178C198.875 37.7178 199.444 37.9457 199.672 38.2875L199.103 40.3387Z" fill="#232D30"/>
<path d="M206.724 46.0369V41.5928C206.724 40.1114 206.269 39.6556 205.359 39.6556C204.449 39.6556 203.994 40.1114 203.994 41.4788V45.923H201.832V35.6672L203.994 34.6416V38.4021C204.335 38.0602 205.018 37.7183 205.928 37.7183C207.976 37.7183 209 39.1997 209 41.4788V46.1509H206.724V46.0369Z" fill="#232D30"/>
<path d="M215.029 46.2643C212.868 46.2643 211.389 44.555 211.389 42.048C211.389 39.541 212.982 37.7178 215.029 37.7178C217.191 37.7178 218.784 39.4271 218.784 42.048C218.67 44.441 217.077 46.2643 215.029 46.2643ZM215.029 39.7689C214.005 39.7689 213.55 40.6806 213.55 41.9341C213.55 43.1875 214.005 44.0992 215.029 44.0992C216.053 44.0992 216.509 43.0736 216.509 41.9341C216.509 40.6806 216.053 39.7689 215.029 39.7689Z" fill="#232D30"/>
<path d="M225.611 46.0369V45.4672C225.156 45.809 224.701 46.1509 223.904 46.1509C222.198 46.1509 220.719 44.7835 220.719 41.8207C220.719 39.3137 221.856 37.6044 223.904 37.6044C224.587 37.6044 225.27 37.8323 225.611 38.2881V35.6672L227.773 34.6416V46.0369H225.611ZM225.611 40.4532C225.27 39.9974 224.815 39.7695 224.132 39.7695C223.336 39.7695 222.88 40.4532 222.88 41.8207C222.88 43.53 223.449 44.2137 224.246 44.2137C224.928 44.2137 225.27 43.9858 225.611 43.53V40.4532Z" fill="#232D30"/>
<path d="M237.33 42.6178H232.438C232.551 43.7573 233.348 44.2131 234.144 44.2131C234.713 44.2131 235.282 43.9852 235.509 43.6434L236.989 44.8968C236.306 45.6945 235.168 46.2643 234.03 46.2643C231.641 46.2643 230.162 44.555 230.162 42.048C230.162 39.541 231.755 37.7178 233.803 37.7178C235.965 37.7178 237.216 39.655 237.216 42.048C237.33 42.2759 237.33 42.5038 237.33 42.6178ZM233.803 39.541C233.006 39.541 232.551 40.2248 232.438 41.0224H235.282C235.168 40.3387 234.713 39.541 233.803 39.541Z" fill="#232D30"/>
<path d="M244.724 46.0371V41.5929C244.724 40.1115 244.269 39.6557 243.359 39.6557C242.449 39.6557 241.994 40.1115 241.994 41.4789V45.9231H239.832V37.7184H241.994V38.2882C242.335 37.9464 243.018 37.6045 243.928 37.6045C245.976 37.6045 247 39.0859 247 41.365V46.0371H244.724Z" fill="#232D30"/>
<path d="M38.7972 3.4186C36.6355 1.25349 33.7911 0.113953 31.1743 0H28.8989H18.4316V17.6628H24.1203V5.58372H36.408V33.6163L42.2104 30.4256V11.3953C42.2104 8.54651 40.9589 5.69767 38.7972 3.4186Z" fill="#4697D7"/>
<path d="M3.527 42.6186C5.68871 44.7837 8.53306 45.9232 11.1499 46.0372H13.4253H23.8926V27.5767H18.2039V40.4534H5.80248V12.4209L0 15.6116V34.7558C0.113774 37.4907 1.25152 40.4535 3.527 42.6186Z" fill="#4697D7"/>
<path d="M58.5929 30.6535C56.7726 30.6535 55.1797 29.8558 54.2695 28.6023L55.8624 27.2349C56.6588 28.1465 57.569 28.4883 58.7067 28.4883C59.9582 28.4883 60.6409 28.1465 60.6409 27.3488C60.6409 26.6651 60.2996 26.3232 58.1378 25.8674C56.0899 25.4116 54.7246 24.7279 54.7246 22.5628C54.7246 20.5116 56.4312 19.3721 58.7067 19.3721C60.4133 19.3721 61.6648 20.0558 62.6888 21.0814L61.096 22.6767C60.4133 21.993 59.6169 21.5372 58.5929 21.5372C57.4552 21.5372 57.0001 21.993 57.0001 22.5628C57.0001 23.2465 57.4552 23.4744 59.1618 23.9302C60.8684 24.386 62.8026 24.9558 62.8026 27.3488C62.9164 29.1721 61.5511 30.6535 58.5929 30.6535Z" fill="#232D30"/>
<path d="M69.173 30.6539C68.4904 30.6539 67.8077 30.426 67.4664 29.9702V32.3632L65.3047 33.5028V22.2214H67.4664V22.7911C67.9215 22.4493 68.3766 22.1074 69.173 22.1074C70.8796 22.1074 72.3587 23.4749 72.3587 26.5516C72.3587 28.9446 71.2209 30.6539 69.173 30.6539ZM68.8317 24.0446C68.149 24.0446 67.8077 24.2725 67.4664 24.7284V27.919C67.8077 28.3749 68.2628 28.6028 68.9455 28.6028C69.7419 28.6028 70.197 27.919 70.197 26.5516C70.197 24.8423 69.6281 24.0446 68.8317 24.0446Z" fill="#232D30"/>
<path d="M75.8863 21.5372C75.2036 21.5372 74.6348 20.9675 74.6348 20.2838C74.6348 19.6 75.2036 19.0303 75.8863 19.0303C76.5689 19.0303 77.1378 19.6 77.1378 20.2838C77.1378 20.9675 76.5689 21.5372 75.8863 21.5372ZM74.8623 30.4256V22.221H77.024V30.4256H74.8623Z" fill="#232D30"/>
<path d="M84.4192 30.0844C84.0778 30.3123 83.3952 30.5402 82.7125 30.5402C81.3473 30.5402 80.5508 29.5147 80.5508 28.0333V24.1589H79.1855V22.2216H80.5508V20.0565L82.7125 18.917V22.2216H84.6467V24.2728H82.7125V27.5775C82.7125 28.3751 82.9401 28.603 83.509 28.603C83.8503 28.603 84.1916 28.3751 84.7605 27.9193L84.4192 30.0844Z" fill="#232D30"/>
<path d="M91.7009 30.4257V29.856C91.3596 30.3118 90.5631 30.5397 89.8805 30.5397C88.2877 30.5397 86.8086 29.628 86.8086 27.5769C86.8086 25.7536 88.2877 24.842 90.108 24.842C90.9045 24.842 91.3596 24.956 91.7009 25.1839V24.728C91.7009 24.1583 91.3596 23.7025 90.5631 23.7025C89.5392 23.7025 89.0841 23.8164 88.2877 24.2722L87.4912 22.7908C88.4014 22.2211 89.1978 21.9932 90.5631 21.9932C92.6111 21.9932 93.8626 23.0187 93.8626 24.842V30.4257H91.7009ZM91.7009 27.0071C91.3596 26.7792 91.0182 26.6653 90.2218 26.6653C89.4254 26.6653 88.9703 27.0071 88.9703 27.6908C88.9703 28.2606 89.3116 28.8304 90.2218 28.8304C90.9045 28.8304 91.4733 28.4885 91.7009 28.0327V27.0071Z" fill="#232D30"/>
<path d="M96.5918 30.4263V20.0565L98.7535 18.917V30.4263H96.5918Z" fill="#232D30"/>
<path d="M106.036 30.4263H103.76L100.916 22.2217H103.305L104.557 26.0961C104.784 26.7798 105.012 27.4635 105.126 27.9194C105.239 27.4635 105.467 26.7798 105.695 26.0961L106.946 22.2217H109.222L106.036 30.4263Z" fill="#232D30"/>
<path d="M117.527 27.0071H112.634C112.748 28.1467 113.545 28.6025 114.341 28.6025C114.91 28.6025 115.479 28.3746 115.706 28.0327L117.299 29.2862C116.616 30.0839 115.479 30.6536 114.341 30.6536C111.952 30.6536 110.473 28.9443 110.473 26.3234C110.473 23.8164 112.065 21.9932 114.113 21.9932C116.275 21.9932 117.527 23.9304 117.527 26.3234C117.527 26.6653 117.527 26.8932 117.527 27.0071ZM114 23.9304C113.203 23.9304 112.748 24.6141 112.634 25.4118H115.479C115.365 24.6141 114.91 23.9304 114 23.9304Z" fill="#232D30"/>
<path d="M124.695 24.7284C124.353 24.3865 123.898 24.1586 123.443 24.1586C122.647 24.1586 122.078 24.5004 122.078 25.9818V30.426H119.916V22.2214H122.078V22.7911C122.419 22.4493 122.988 22.1074 123.784 22.1074C124.467 22.1074 125.036 22.3353 125.263 22.6772L124.695 24.7284Z" fill="#232D30"/>
<path d="M131.179 30.6542C130.496 30.6542 129.814 30.4263 129.472 29.9705V30.4263H127.311V20.0565L129.472 18.917V22.6775C129.927 22.3356 130.382 21.9937 131.179 21.9937C132.885 21.9937 134.365 23.3612 134.365 26.4379C134.365 28.9449 133.227 30.6542 131.179 30.6542ZM130.724 24.0449C130.041 24.0449 129.7 24.2728 129.358 24.7286V27.9193C129.7 28.3751 130.155 28.603 130.838 28.603C131.634 28.603 132.089 27.9193 132.089 26.5519C132.203 24.8426 131.634 24.0449 130.724 24.0449Z" fill="#232D30"/>
<path d="M141.647 30.4263V29.8566C141.305 30.1984 140.623 30.5403 139.713 30.5403C137.665 30.5403 136.641 29.0589 136.641 26.7798V22.2217H138.802V26.6659C138.802 28.1473 139.257 28.6031 140.168 28.6031C141.078 28.6031 141.533 28.1473 141.533 26.7798V22.2217H143.695V30.4263H141.647Z" fill="#232D30"/>
<path d="M151.545 30.426V25.9818C151.545 24.5004 151.09 24.0446 150.179 24.0446C149.269 24.0446 148.814 24.5004 148.814 25.8679V30.426H146.652V22.2214H148.814V22.7911C149.155 22.4493 149.838 22.1074 150.748 22.1074C152.796 22.1074 153.82 23.5888 153.82 25.8679V30.54H151.545V30.426Z" fill="#232D30"/>
<path d="M160.875 30.426V29.8562C160.42 30.1981 159.965 30.5399 159.168 30.5399C157.461 30.5399 155.982 29.1725 155.982 26.0958C155.982 23.5888 157.12 21.8795 159.168 21.8795C159.851 21.8795 160.533 22.1074 160.875 22.5632V19.9423L163.036 18.8027V30.312H160.875V30.426ZM160.875 24.8423C160.533 24.3865 160.078 24.1585 159.396 24.1585C158.599 24.1585 158.144 24.8423 158.144 26.2097C158.144 27.919 158.713 28.6027 159.509 28.6027C160.192 28.6027 160.533 28.3748 160.875 27.919V24.8423Z" fill="#232D30"/>
</svg>
